<svg id="Capa_1" data-name="Capa 1" xmlns="http://www.w3.org/2000/svg" viewBox="0 0 11664.83 8867.23"><defs><style>.cls-1{fill:#ff0159;}.cls-2{fill:#05f4ff;}.cls-3{fill:#eaff04;}.cls-4{font-size:169.81px;}.cls-13,.cls-4,.cls-5{fill:#fff;}.cls-4,.cls-5,.cls-6{font-family:Poppins-Light, Poppins;font-weight:300;}.cls-5{opacity:0.39;font-size:96.24px;}.cls-6{font-size:90.72px;}.cls-15,.cls-6{fill:#3b3b3b;}.cls-7{fill:#004b6b;}.cls-8{fill:#f5f5f5;}.cls-9{fill:#0f8;}.cls-10{fill:#38003d;}.cls-11{fill:#0fa8b7;}.cls-12{opacity:0.4;}.cls-14{fill:#cecece;}.cls-16{fill:#1b1b1b;}</style></defs><path class="cls-1" d="M4738.06,7522.77c0,64.26-52.28,117.08-116.54,117.71l-36.58.42a142.47,142.47,0,0,1-19.94-1.43c-2.83-.38-5.66-.87-8.46-1.43a145.43,145.43,0,0,1-43.55-16.41,145.36,145.36,0,0,1-30.11-23l-193.6-193.58h65.52a65.45,65.45,0,0,1,46.32,19.19l128.08,128.09a79.44,79.44,0,0,0,55.74,23.06H4586l34.82-.41a52.25,52.25,0,0,0,50.08-65.35,51.28,51.28,0,0,0-1.62-5.1,52.22,52.22,0,0,0-48.92-34H4572v45.82a79.19,79.19,0,0,1-42.81-22l-22.69-22.69v-66.67h113.84A117.85,117.85,0,0,1,4738.06,7522.77Z" transform="translate(0 -128.1)"/><path class="cls-1" d="M4485.2,7660.86a176.19,176.19,0,0,0,41.73,17.29L4421.6,7786.38h-91.55l135.21-138.84A172.55,172.55,0,0,0,4485.2,7660.86Z" transform="translate(0 -128.1)"/><path class="cls-2" d="M5511.46,7545.35c0,64.26-52.28,117.08-116.54,117.72l-36.58.41a141,141,0,0,1-19.94-1.43c-2.83-.38-5.66-.86-8.46-1.43a145.43,145.43,0,0,1-43.55-16.41,145.72,145.72,0,0,1-30.11-23l-193.6-193.58h65.52a65.44,65.44,0,0,1,46.32,19.18l128.08,128.1a79.44,79.44,0,0,0,55.74,23.06h1.05l34.82-.41a52.25,52.25,0,0,0,50.08-65.35,50.46,50.46,0,0,0-1.62-5.1,52.21,52.21,0,0,0-48.92-34h-48.34V7539a79.28,79.28,0,0,1-42.81-22l-22.69-22.68v-66.67h113.84A117.84,117.84,0,0,1,5511.46,7545.35Z" transform="translate(0 -128.1)"/><path class="cls-2" d="M5258.6,7683.45a176.61,176.61,0,0,0,41.73,17.29L5195,7809h-91.55l135.21-138.85A172.63,172.63,0,0,0,5258.6,7683.45Z" transform="translate(0 -128.1)"/><path class="cls-3" d="M7058.26,7545.35c0,64.26-52.28,117.08-116.54,117.72l-36.58.41a140.87,140.87,0,0,1-19.94-1.43c-2.83-.38-5.66-.86-8.47-1.43a145.47,145.47,0,0,1-43.54-16.41,145.72,145.72,0,0,1-30.11-23l-193.6-193.58H6675a65.44,65.44,0,0,1,46.32,19.18l128.08,128.1a79.42,79.42,0,0,0,55.74,23.06h1l34.82-.41a52.25,52.25,0,0,0,50.08-65.35,50.46,50.46,0,0,0-1.62-5.1,52.21,52.21,0,0,0-48.92-34h-48.34V7539a79.28,79.28,0,0,1-42.81-22l-22.69-22.68v-66.67h113.84A117.84,117.84,0,0,1,7058.26,7545.35Z" transform="translate(0 -128.1)"/><path class="cls-3" d="M6805.4,7683.45a176.61,176.61,0,0,0,41.73,17.29L6741.8,7809h-91.55l135.21-138.85A172.63,172.63,0,0,0,6805.4,7683.45Z" transform="translate(0 -128.1)"/><text class="cls-4" transform="translate(4093.3 993.43)">Versiones sin tagline</text><text class="cls-4" transform="translate(88.66 993.43)">Muestras</text><text class="cls-4" transform="translate(88.66 6731.24)">Favicon</text><text class="cls-4" transform="translate(4093.3 6731.24)">Monograma a Color</text><text class="cls-5" transform="translate(844.62 6630.23)">Mas espacio negativo para su reducción /<tspan x="0" y="115.48">More negative space for its reduction.</tspan></text><text class="cls-6" transform="translate(1158.47 7993.46)">Muestra sobre colores estándar del navegador /<tspan x="0" y="108.86">Sample over standard browser colors</tspan></text><text class="cls-4" transform="translate(4093.3 3889.18)">Veriones con tagline</text><text class="cls-4" transform="translate(7516.36 6731.24)">B/N</text><rect class="cls-3" x="1815.75" y="2394.65" width="1815.75" height="1222.14"/><path class="cls-7" d="M2946.09,3057.39c0,67.33-54.78,122.67-122.11,123.34l-38.33.43a148.72,148.72,0,0,1-20.9-1.5c-3-.4-5.92-.9-8.86-1.5a152.39,152.39,0,0,1-45.63-17.19,148.35,148.35,0,0,1-14.17-9.23,146,146,0,0,1-17.38-14.87l-202.84-202.82h68.65a68.58,68.58,0,0,1,48.53,20.1l134.19,134.21a83.26,83.26,0,0,0,58.41,24.17h1.1l36.49-.44a54.74,54.74,0,0,0,52.47-68.47,52.69,52.69,0,0,0-1.7-5.34,54.73,54.73,0,0,0-51.26-35.6h-50.64v48a83.12,83.12,0,0,1-44.87-23l-23.77-23.77v-69.85h119.28A123.48,123.48,0,0,1,2946.09,3057.39Z" transform="translate(0 -128.1)"/><path class="cls-7" d="M2681.15,3202.08a184.45,184.45,0,0,0,43.72,18.11L2614.5,3333.6h-95.92l141.67-145.48A180.12,180.12,0,0,0,2681.15,3202.08Z" transform="translate(0 -128.1)"/><rect class="cls-2" x="1815.75" y="1172.5" width="1815.75" height="1222.14"/><path class="cls-7" d="M2958.73,1835.24c0,67.34-54.78,122.67-122.11,123.34l-38.33.44a148.47,148.47,0,0,1-20.89-1.5c-3-.4-5.93-.91-8.87-1.5a152.19,152.19,0,0,1-45.62-17.2,143.55,143.55,0,0,1-14.18-9.23,146.71,146.71,0,0,1-17.38-14.86L2488.51,1711.9h68.65a68.62,68.62,0,0,1,48.53,20.1l134.19,134.22a83.25,83.25,0,0,0,58.41,24.16h1.11l36.48-.43a54.74,54.74,0,0,0,52.47-68.47,53.69,53.69,0,0,0-1.7-5.35,54.71,54.71,0,0,0-51.26-35.59h-50.64v48a83.08,83.08,0,0,1-44.87-23l-23.76-23.77V1711.9h119.27A123.48,123.48,0,0,1,2958.73,1835.24Z" transform="translate(0 -128.1)"/><path class="cls-7" d="M2693.79,1979.94a184.45,184.45,0,0,0,43.72,18.11l-110.36,113.4h-95.93L2672.89,1966A181.49,181.49,0,0,0,2693.79,1979.94Z" transform="translate(0 -128.1)"/><rect class="cls-1" y="1172.5" width="1815.75" height="1222.14"/><path class="cls-8" d="M1143,1835.24c0,67.34-54.78,122.67-122.12,123.34l-38.32.44a148.5,148.5,0,0,1-20.9-1.5c-3-.4-5.92-.91-8.87-1.5a152.19,152.19,0,0,1-45.62-17.2,152.34,152.34,0,0,1-31.55-24.09L672.76,1711.9h68.65a68.6,68.6,0,0,1,48.53,20.1l134.2,134.22a83.24,83.24,0,0,0,58.41,24.16h1.1l36.48-.43a54.74,54.74,0,0,0,52.47-68.47,53.69,53.69,0,0,0-1.7-5.35,54.69,54.69,0,0,0-51.25-35.59H969v48a83,83,0,0,1-44.86-23l-23.77-23.77V1711.9h119.28A123.48,123.48,0,0,1,1143,1835.24Z" transform="translate(0 -128.1)"/><path class="cls-8" d="M878,1979.94a184.52,184.52,0,0,0,43.73,18.11L811.4,2111.45H715.48L857.14,1966A181.49,181.49,0,0,0,878,1979.94Z" transform="translate(0 -128.1)"/><rect class="cls-9" y="2394.65" width="1815.75" height="1222.14"/><path class="cls-7" d="M1143,3057.39c0,67.33-54.78,122.67-122.12,123.34l-38.32.43a148.5,148.5,0,0,1-20.9-1.5q-4.44-.6-8.87-1.5A152.44,152.44,0,0,1,907.16,3161a149.76,149.76,0,0,1-14.18-9.23,146.69,146.69,0,0,1-17.37-14.87L672.76,2934.05h68.65a68.56,68.56,0,0,1,48.53,20.1l134.2,134.21a83.24,83.24,0,0,0,58.41,24.17h1.1l36.48-.44a54.74,54.74,0,0,0,52.47-68.47,52.69,52.69,0,0,0-1.7-5.34,54.7,54.7,0,0,0-51.25-35.6H969v48a83.09,83.09,0,0,1-44.86-23l-23.77-23.77v-69.85h119.28A123.48,123.48,0,0,1,1143,3057.39Z" transform="translate(0 -128.1)"/><path class="cls-7" d="M878,3202.08a184.52,184.52,0,0,0,43.73,18.11L811.4,3333.6H715.48l141.66-145.48A180.12,180.12,0,0,0,878,3202.08Z" transform="translate(0 -128.1)"/><rect class="cls-10" y="3616.79" width="1815.75" height="1222.14"/><path class="cls-2" d="M1143,4279.53c0,67.33-54.78,122.67-122.12,123.34l-38.32.43a147,147,0,0,1-20.9-1.5c-3-.39-5.92-.9-8.87-1.5a151.9,151.9,0,0,1-45.62-17.19,149.76,149.76,0,0,1-14.18-9.23A147.55,147.55,0,0,1,875.61,4359L672.76,4156.19h68.65a68.56,68.56,0,0,1,48.53,20.1l134.2,134.21a83.2,83.2,0,0,0,58.41,24.17h1.1l36.48-.43a54.74,54.74,0,0,0,52.47-68.47,52.08,52.08,0,0,0-1.7-5.35,54.7,54.7,0,0,0-51.25-35.6H969v48a83,83,0,0,1-44.86-23L900.37,4226v-69.85h119.28A123.48,123.48,0,0,1,1143,4279.53Z" transform="translate(0 -128.1)"/><path class="cls-2" d="M878,4424.22a185,185,0,0,0,43.73,18.12L811.4,4555.74H715.48l141.66-145.48A180.12,180.12,0,0,0,878,4424.22Z" transform="translate(0 -128.1)"/><rect class="cls-11" x="1815.75" y="3616.79" width="1815.75" height="1222.14"/><path class="cls-7" d="M2958.73,4279.53c0,67.33-54.78,122.67-122.11,123.34l-38.33.43a147,147,0,0,1-20.89-1.5c-3-.39-5.93-.9-8.87-1.5a151.9,151.9,0,0,1-45.62-17.19,152.7,152.7,0,0,1-31.56-24.09l-202.84-202.83h68.65a68.58,68.58,0,0,1,48.53,20.1l134.19,134.21a83.22,83.22,0,0,0,58.41,24.17h1.11l36.48-.43a54.74,54.74,0,0,0,52.47-68.47,52.08,52.08,0,0,0-1.7-5.35,54.72,54.72,0,0,0-51.26-35.6h-50.64v48a83.09,83.09,0,0,1-44.87-23L2716.12,4226v-69.85h119.27A123.48,123.48,0,0,1,2958.73,4279.53Z" transform="translate(0 -128.1)"/><path class="cls-7" d="M2693.79,4424.22a184.9,184.9,0,0,0,43.72,18.12l-110.36,113.4h-95.93l141.67-145.48A180.12,180.12,0,0,0,2693.79,4424.22Z" transform="translate(0 -128.1)"/><rect class="cls-7" y="4838.93" width="1815.75" height="1222.14"/><path class="cls-3" d="M1129.09,5454.33c0,67.34-54.78,122.68-122.11,123.34l-38.33.44a148.47,148.47,0,0,1-20.89-1.5q-4.46-.6-8.87-1.5a152.34,152.34,0,0,1-45.62-17.19,152.34,152.34,0,0,1-31.56-24.1L658.87,5331h68.65a68.59,68.59,0,0,1,48.53,20.11l134.19,134.21a83.25,83.25,0,0,0,58.41,24.16h1.11l36.48-.43a54.74,54.74,0,0,0,52.47-68.47,53.69,53.69,0,0,0-1.7-5.35,54.71,54.71,0,0,0-51.26-35.59H955.11v48a83.16,83.16,0,0,1-44.87-23l-23.77-23.77V5331h119.28A123.48,123.48,0,0,1,1129.09,5454.33Z" transform="translate(0 -128.1)"/><path class="cls-3" d="M864.15,5599a184.45,184.45,0,0,0,43.72,18.11L797.5,5730.54H701.58l141.67-145.48A181.49,181.49,0,0,0,864.15,5599Z" transform="translate(0 -128.1)"/><rect class="cls-8" x="1815.75" y="4838.93" width="1815.75" height="1222.14"/><path class="cls-7" d="M2958.73,5501.67c0,67.33-54.78,122.67-122.11,123.34l-38.33.44a148.47,148.47,0,0,1-20.89-1.5c-3-.4-5.93-.91-8.87-1.5a152.19,152.19,0,0,1-45.62-17.2,143.55,143.55,0,0,1-14.18-9.23,146.71,146.71,0,0,1-17.38-14.86l-202.84-202.83h68.65a68.62,68.62,0,0,1,48.53,20.1l134.19,134.22a83.25,83.25,0,0,0,58.41,24.16h1.11l36.48-.43a54.74,54.74,0,0,0,52.47-68.47,53.69,53.69,0,0,0-1.7-5.35,54.72,54.72,0,0,0-51.26-35.6h-50.64v48a83.08,83.08,0,0,1-44.87-23l-23.76-23.77v-69.86h119.27A123.48,123.48,0,0,1,2958.73,5501.67Z" transform="translate(0 -128.1)"/><path class="cls-7" d="M2693.79,5646.36a184.07,184.07,0,0,0,43.72,18.12l-110.36,113.4h-95.93l141.67-145.48A180.12,180.12,0,0,0,2693.79,5646.36Z" transform="translate(0 -128.1)"/><path class="cls-7" d="M4865.11,1855.05l-40.85,78.1v47.32h-16.37v-47.32l-41-78.1H4785l31,63.52,30.95-63.52Z" transform="translate(0 -128.1)"/><path class="cls-7" d="M4870.35,1904.26a44.49,44.49,0,0,1,16.82-17.72,46.16,46.16,0,0,1,23.85-6.3q13,0,22.49,5.58a37.18,37.18,0,0,1,14.22,14v-18h16.55v98.61h-16.55v-18.35a38.57,38.57,0,0,1-14.49,14.3,43.34,43.34,0,0,1-22.4,5.67,44.71,44.71,0,0,1-23.76-6.48,45.47,45.47,0,0,1-16.73-18.17,56.61,56.61,0,0,1-6.12-26.63Q4864.23,1915.69,4870.35,1904.26Zm72.88,7.29a31.81,31.81,0,0,0-12.15-12.68,34.44,34.44,0,0,0-33.56-.09,31.29,31.29,0,0,0-12.05,12.59,40,40,0,0,0-4.5,19.44q0,11.32,4.5,19.7a31.74,31.74,0,0,0,12.05,12.78,32.62,32.62,0,0,0,16.74,4.41,33.06,33.06,0,0,0,16.82-4.41,31.64,31.64,0,0,0,12.15-12.78,40.59,40.59,0,0,0,4.5-19.52A40.1,40.1,0,0,0,4943.23,1911.55Z" transform="translate(0 -128.1)"/><path class="cls-7" d="M5067.69,1891q11.15,10.89,11.15,31.4v58.12h-16.19v-55.78q0-14.76-7.38-22.59t-20.15-7.82q-13,0-20.61,8.1t-7.65,23.57v54.52h-16.37v-98.61h16.37v14a32.52,32.52,0,0,1,13.23-11.7,41,41,0,0,1,18.44-4.14Q5056.53,1880.06,5067.69,1891Z" transform="translate(0 -128.1)"/><path class="cls-7" d="M5195.09,1937.28h-78.82q.9,14.58,10,22.77a31.75,31.75,0,0,0,22,8.19q10.62,0,17.73-5a26.24,26.24,0,0,0,10-13.23h17.64a42.34,42.34,0,0,1-15.84,23.12q-11.88,8.91-29.51,8.91a49.82,49.82,0,0,1-25.1-6.3,44.51,44.51,0,0,1-17.37-17.9q-6.3-11.61-6.29-26.9t6.11-26.82a43,43,0,0,1,17.19-17.72q11.07-6.21,25.46-6.21a49.44,49.44,0,0,1,24.83,6.12,42.42,42.42,0,0,1,16.65,16.82,49.67,49.67,0,0,1,5.85,24.21A96.06,96.06,0,0,1,5195.09,1937.28Zm-20.52-29.42a26.87,26.87,0,0,0-11.24-10.25,35.09,35.09,0,0,0-15.75-3.51,30.33,30.33,0,0,0-21.14,7.92q-8.73,7.9-10,22h62.26A30.21,30.21,0,0,0,5174.57,1907.86Z" transform="translate(0 -128.1)"/><path class="cls-7" d="M5233.6,1847.31v133.16h-16.38V1847.31Z" transform="translate(0 -128.1)"/><path class="cls-7" d="M5396.22,1917.76q-10.71,10.35-32.66,10.35h-24.11v52.36h-16.38V1855.05h40.49q21.24,0,32.3,10.26t11.07,26.45Q5406.93,1907.41,5396.22,1917.76Zm-12.5-9.09q6.46-5.94,6.47-16.91,0-23.22-26.63-23.22h-24.11v46.07h24.11Q5377.24,1914.61,5383.72,1908.67Z" transform="translate(0 -128.1)"/><path class="cls-7" d="M5427.8,1862.61a11.16,11.16,0,0,1,7.92-19.08,10.27,10.27,0,0,1,7.65,3.24,11.53,11.53,0,0,1,0,15.84,10.26,10.26,0,0,1-7.65,3.23A10.76,10.76,0,0,1,5427.8,1862.61Zm15.84,19.25v98.61h-16.38v-98.61Z" transform="translate(0 -128.1)"/><path class="cls-7" d="M5548.72,1891q11.16,10.89,11.16,31.4v58.12h-16.2v-55.78q0-14.76-7.37-22.59t-20.16-7.82q-12.94,0-20.6,8.1T5487.9,1926v54.52h-16.37v-98.61h16.37v14a32.52,32.52,0,0,1,13.23-11.7,41,41,0,0,1,18.44-4.14Q5537.57,1880.06,5548.72,1891Z" transform="translate(0 -128.1)"/><path class="cls-7" d="M5606.67,1895.36v58.12q0,7.2,3.05,10.17t10.62,3h12.06v13.85h-14.76q-13.68,0-20.51-6.3t-6.84-20.69v-58.12h-12.78v-13.5h12.78V1857h16.38v24.83h25.73v13.5Z" transform="translate(0 -128.1)"/><path class="cls-7" d="M5668.59,1975.79a44.74,44.74,0,0,1-17.63-17.9q-6.39-11.61-6.39-26.9,0-15.12,6.57-26.73a45.29,45.29,0,0,1,17.9-17.81,54.95,54.95,0,0,1,50.75,0,45.45,45.45,0,0,1,17.9,17.72q6.57,11.52,6.57,26.82t-6.75,26.9a46.67,46.67,0,0,1-18.26,17.9,52.38,52.38,0,0,1-25.55,6.3A50.5,50.5,0,0,1,5668.59,1975.79Zm41.66-12.23a31.5,31.5,0,0,0,12.51-12.42q4.76-8.28,4.77-20.15t-4.68-20.16a30.62,30.62,0,0,0-12.24-12.32,35.31,35.31,0,0,0-32.84,0,29.67,29.67,0,0,0-12,12.32q-4.5,8.28-4.49,20.16,0,12,4.4,20.33a29.31,29.31,0,0,0,11.79,12.33,33.12,33.12,0,0,0,16.2,4A34.58,34.58,0,0,0,5710.25,1963.56Z" transform="translate(0 -128.1)"/><path class="cls-7" d="M4680.93,1870.83a75,75,0,0,1-74,74.73l-23.22.26a88.48,88.48,0,0,1-12.66-.91q-2.7-.36-5.37-.9a92.21,92.21,0,0,1-36.24-16,89.6,89.6,0,0,1-10.52-9L4396,1796.1h41.59a41.55,41.55,0,0,1,29.4,12.18l81.31,81.32a50.43,50.43,0,0,0,35.39,14.64h.67l22.1-.26a33.17,33.17,0,0,0,31.79-41.49,29.77,29.77,0,0,0-1-3.24,33.15,33.15,0,0,0-31.05-21.57h-30.69v29.1a50.35,50.35,0,0,1-27.18-14l-14.4-14.4V1796.1h72.27A74.81,74.81,0,0,1,4680.93,1870.83Z" transform="translate(0 -128.1)"/><path class="cls-7" d="M4520.41,1958.5a111.65,111.65,0,0,0,26.49,11L4480,2038.18h-58.11l85.83-88.14A109.83,109.83,0,0,0,4520.41,1958.5Z" transform="translate(0 -128.1)"/><path class="cls-7" d="M4612.31,2767.09l-40.85,78.1v47.32h-16.37v-47.32l-41-78.1h18.18l30.95,63.52,31-63.52Z" transform="translate(0 -128.1)"/><path class="cls-7" d="M4617.55,2816.31a44.4,44.4,0,0,1,16.83-17.73,46.1,46.1,0,0,1,23.84-6.3q13,0,22.49,5.58a37.18,37.18,0,0,1,14.22,14v-18h16.55v98.61h-16.55v-18.35a38.5,38.5,0,0,1-14.49,14.3,43.31,43.31,0,0,1-22.4,5.67,44.65,44.65,0,0,1-23.75-6.47,45.45,45.45,0,0,1-16.74-18.18,56.58,56.58,0,0,1-6.12-26.63Q4611.43,2827.73,4617.55,2816.31Zm72.88,7.28a31.81,31.81,0,0,0-12.15-12.68,34.44,34.44,0,0,0-33.56-.09,31.35,31.35,0,0,0-12.05,12.59,40.1,40.1,0,0,0-4.5,19.44,41,41,0,0,0,4.5,19.7,31.81,31.81,0,0,0,12.05,12.78,32.62,32.62,0,0,0,16.74,4.41,33.06,33.06,0,0,0,16.82-4.41,31.64,31.64,0,0,0,12.15-12.78,40.59,40.59,0,0,0,4.5-19.52A40.1,40.1,0,0,0,4690.43,2823.59Z" transform="translate(0 -128.1)"/><path class="cls-7" d="M4814.89,2803q11.14,10.89,11.15,31.4v58.12h-16.19v-55.78q0-14.74-7.38-22.58t-20.15-7.83q-13,0-20.61,8.1t-7.64,23.57v54.52h-16.38V2793.9h16.38v14a32.43,32.43,0,0,1,13.22-11.7,41,41,0,0,1,18.45-4.14Q4803.72,2792.1,4814.89,2803Z" transform="translate(0 -128.1)"/><path class="cls-7" d="M4942.29,2849.33h-78.82q.9,14.57,10,22.76a31.77,31.77,0,0,0,22,8.19q10.62,0,17.73-5a26.19,26.19,0,0,0,10-13.23h17.64a42.4,42.4,0,0,1-15.84,23.13q-11.86,8.89-29.51,8.9a49.84,49.84,0,0,1-25.1-6.29,44.51,44.51,0,0,1-17.36-17.91q-6.31-11.61-6.3-26.9t6.12-26.81a42.88,42.88,0,0,1,17.18-17.73q11.07-6.21,25.46-6.21a49.5,49.5,0,0,1,24.84,6.12,42.42,42.42,0,0,1,16.64,16.83,49.63,49.63,0,0,1,5.85,24.2A96.4,96.4,0,0,1,4942.29,2849.33Zm-20.51-29.42a26.92,26.92,0,0,0-11.25-10.26,35.09,35.09,0,0,0-15.75-3.51,30.35,30.35,0,0,0-21.14,7.92q-8.73,7.92-10,22h62.26A30.27,30.27,0,0,0,4921.78,2819.91Z" transform="translate(0 -128.1)"/><path class="cls-7" d="M4980.8,2759.35v133.16h-16.38V2759.35Z" transform="translate(0 -128.1)"/><path class="cls-7" d="M5143.42,2829.8q-10.71,10.35-32.66,10.35h-24.11v52.36h-16.38V2767.09h40.49q21.24,0,32.3,10.26t11.07,26.45Q5154.13,2819.46,5143.42,2829.8Zm-12.5-9.08q6.48-5.94,6.48-16.92,0-23.21-26.64-23.21h-24.11v46.06h24.11Q5124.44,2826.65,5130.92,2820.72Z" transform="translate(0 -128.1)"/><path class="cls-7" d="M5175,2774.65a11.16,11.16,0,0,1,7.92-19.08,10.27,10.27,0,0,1,7.65,3.24,11.53,11.53,0,0,1,0,15.84,10.27,10.27,0,0,1-7.65,3.24A10.77,10.77,0,0,1,5175,2774.65Zm15.84,19.25v98.61h-16.38V2793.9Z" transform="translate(0 -128.1)"/><path class="cls-7" d="M5295.92,2803q11.16,10.89,11.16,31.4v58.12h-16.19v-55.78q0-14.74-7.38-22.58t-20.16-7.83q-12.94,0-20.6,8.1T5235.1,2838v54.52h-16.37V2793.9h16.37v14a32.52,32.52,0,0,1,13.23-11.7,41,41,0,0,1,18.44-4.14Q5284.77,2792.1,5295.92,2803Z" transform="translate(0 -128.1)"/><path class="cls-7" d="M5353.87,2807.4v58.12q0,7.2,3.06,10.17c2,2,5.58,3,10.61,3h12.06v13.85h-14.76q-13.67,0-20.51-6.29t-6.84-20.7V2807.4h-12.77v-13.5h12.77v-24.83h16.38v24.83h25.73v13.5Z" transform="translate(0 -128.1)"/><path class="cls-7" d="M5415.8,2887.84a44.85,44.85,0,0,1-17.64-17.91q-6.39-11.61-6.39-26.9,0-15.12,6.57-26.72a45.31,45.31,0,0,1,17.9-17.82,54.95,54.95,0,0,1,50.75,0,45.5,45.5,0,0,1,17.91,17.73q6.56,11.52,6.56,26.81t-6.75,26.9a46.69,46.69,0,0,1-18.26,17.91,52.34,52.34,0,0,1-25.55,6.29A50.43,50.43,0,0,1,5415.8,2887.84Zm41.65-12.24a31.5,31.5,0,0,0,12.51-12.42q4.77-8.26,4.77-20.15t-4.68-20.15a30.65,30.65,0,0,0-12.24-12.33,35.31,35.31,0,0,0-32.84,0,29.61,29.61,0,0,0-12,12.33q-4.5,8.26-4.5,20.15,0,12.06,4.41,20.33a29.23,29.23,0,0,0,11.78,12.33,33.12,33.12,0,0,0,16.2,4A34.58,34.58,0,0,0,5457.45,2875.6Z" transform="translate(0 -128.1)"/><path class="cls-7" d="M5136.79,2490.2a75,75,0,0,1-74,74.73l-23.22.27a90,90,0,0,1-12.66-.91c-1.8-.24-3.59-.55-5.38-.91a92.24,92.24,0,0,1-36.23-16,90.52,90.52,0,0,1-10.53-9l-122.9-122.89h41.6a41.55,41.55,0,0,1,29.4,12.18L5004.2,2509a50.43,50.43,0,0,0,35.39,14.64h.67l22.1-.26a33.17,33.17,0,0,0,31.79-41.49c-.29-1.1-.64-2.18-1-3.23a33.14,33.14,0,0,0-31.06-21.57h-30.68v29.09a50.35,50.35,0,0,1-27.18-14l-14.4-14.4v-42.33h72.26A74.82,74.82,0,0,1,5136.79,2490.2Z" transform="translate(0 -128.1)"/><path class="cls-7" d="M4976.27,2577.87a112.09,112.09,0,0,0,26.49,11l-66.87,68.7h-58.12l85.84-88.14A109,109,0,0,0,4976.27,2577.87Z" transform="translate(0 -128.1)"/><path class="cls-7" d="M6411.35,2695.07l-36.88,70.53v42.74h-14.79V2765.6l-37.05-70.53H6339l27.95,57.37,27.95-57.37Z" transform="translate(0 -128.1)"/><path class="cls-7" d="M6416.09,2739.52a40.09,40.09,0,0,1,15.19-16,41.66,41.66,0,0,1,21.53-5.68q11.7,0,20.32,5a33.61,33.61,0,0,1,12.83,12.68v-16.25h14.95v89.05H6486v-16.57a34.83,34.83,0,0,1-13.08,12.92,39.14,39.14,0,0,1-20.23,5.11,40.27,40.27,0,0,1-21.45-5.85,41,41,0,0,1-15.11-16.41,51,51,0,0,1-5.53-24.05Q6410.56,2749.84,6416.09,2739.52Zm65.81,6.58a28.8,28.8,0,0,0-11-11.46,31.12,31.12,0,0,0-30.31-.08,28.26,28.26,0,0,0-10.88,11.38,36.17,36.17,0,0,0-4.07,17.55,37,37,0,0,0,4.07,17.79,28.63,28.63,0,0,0,10.88,11.54,29.4,29.4,0,0,0,15.12,4,29.81,29.81,0,0,0,15.19-4,28.57,28.57,0,0,0,11-11.54,36.63,36.63,0,0,0,4.06-17.63A36.22,36.22,0,0,0,6481.9,2746.1Z" transform="translate(0 -128.1)"/><path class="cls-7" d="M6594.3,2727.49q10.06,9.84,10.07,28.36v52.49h-14.62V2758q0-13.33-6.67-20.4t-18.2-7.07q-11.7,0-18.61,7.31t-6.9,21.29v49.24h-14.79v-89.05h14.79V2732a29.28,29.28,0,0,1,11.94-10.56,37.08,37.08,0,0,1,16.66-3.74Q6584.22,2717.66,6594.3,2727.49Z" transform="translate(0 -128.1)"/><path class="cls-7" d="M6709.35,2769.34h-71.18q.81,13.17,9,20.56a28.68,28.68,0,0,0,19.91,7.39q9.58,0,16-4.47a23.62,23.62,0,0,0,9-11.94h15.93a38.25,38.25,0,0,1-14.3,20.88q-10.72,8-26.65,8a45,45,0,0,1-22.67-5.68,40.3,40.3,0,0,1-15.68-16.17q-5.7-10.48-5.69-24.3t5.52-24.21a38.89,38.89,0,0,1,15.52-16,46.2,46.2,0,0,1,23-5.6,44.77,44.77,0,0,1,22.43,5.52,38.22,38.22,0,0,1,15,15.2,44.82,44.82,0,0,1,5.28,21.85A85.64,85.64,0,0,1,6709.35,2769.34Zm-18.52-26.57a24.35,24.35,0,0,0-10.16-9.26,31.59,31.59,0,0,0-14.22-3.17,27.41,27.41,0,0,0-19.1,7.15q-7.87,7.16-9,19.83h56.22A27.29,27.29,0,0,0,6690.83,2742.77Z" transform="translate(0 -128.1)"/><path class="cls-7" d="M6744.13,2688.09v120.25h-14.79V2688.09Z" transform="translate(0 -128.1)"/><path class="cls-7" d="M6397.38,2896.05q-9.68,9.35-29.49,9.34h-21.78v47.29h-14.79V2839.41h36.57q19.17,0,29.17,9.27t10,23.89Q6407.05,2886.7,6397.38,2896.05Zm-11.29-8.21q5.85-5.36,5.85-15.27,0-21-24-21h-21.78v41.6h21.78Q6380.24,2893.2,6386.09,2887.84Z" transform="translate(0 -128.1)"/><path class="cls-7" d="M6425.9,2846.24a10.08,10.08,0,0,1,7.15-17.23,9.29,9.29,0,0,1,6.91,2.93,10.42,10.42,0,0,1,0,14.3,9.28,9.28,0,0,1-6.91,2.92A9.72,9.72,0,0,1,6425.9,2846.24Zm14.3,17.39v89h-14.79v-89Z" transform="translate(0 -128.1)"/><path class="cls-7" d="M6535.1,2871.84q10.08,9.82,10.08,28.35v52.49h-14.63v-50.37q0-13.33-6.66-20.4t-18.2-7.07q-11.7,0-18.61,7.32t-6.91,21.28v49.24h-14.78v-89h14.78v12.67a29.37,29.37,0,0,1,11.95-10.56,37.07,37.07,0,0,1,16.65-3.74Q6525,2862,6535.1,2871.84Z" transform="translate(0 -128.1)"/><path class="cls-7" d="M6587.43,2875.82v52.49q0,6.49,2.76,9.18t9.59,2.68h10.89v12.51h-13.33q-12.35,0-18.52-5.68t-6.18-18.69v-52.49H6561.1v-12.19h11.54V2841.2h14.79v22.43h23.24v12.19Z" transform="translate(0 -128.1)"/><path class="cls-7" d="M6643.35,2948.46a40.42,40.42,0,0,1-15.92-16.17q-5.78-10.48-5.77-24.3a48.19,48.19,0,0,1,5.93-24.13,40.82,40.82,0,0,1,16.17-16.09,49.68,49.68,0,0,1,45.83,0,41.14,41.14,0,0,1,16.17,16q5.92,10.39,5.93,24.21t-6.1,24.3a42.21,42.21,0,0,1-16.49,16.17,47.32,47.32,0,0,1-23.08,5.68A45.61,45.61,0,0,1,6643.35,2948.46Zm37.62-11.05a28.4,28.4,0,0,0,11.3-11.22q4.31-7.47,4.3-18.2t-4.22-18.2a27.72,27.72,0,0,0-11.05-11.13,31.87,31.87,0,0,0-29.66,0,26.89,26.89,0,0,0-10.81,11.13q-4,7.49-4.06,18.2,0,10.89,4,18.37a26.49,26.49,0,0,0,10.65,11.13,29.85,29.85,0,0,0,14.62,3.66A31.22,31.22,0,0,0,6681,2937.41Z" transform="translate(0 -128.1)"/><path class="cls-7" d="M6675.83,2472.22a75,75,0,0,1-74,74.73l-23.22.26a90,90,0,0,1-12.66-.91c-1.8-.24-3.59-.55-5.37-.91a92.39,92.39,0,0,1-27.65-10.41,90.36,90.36,0,0,1-8.59-5.6,88.58,88.58,0,0,1-10.52-9l-122.9-122.89h41.59a41.55,41.55,0,0,1,29.4,12.18l81.31,81.31a50.39,50.39,0,0,0,35.39,14.65h.67l22.1-.27a33.16,33.16,0,0,0,31.79-41.48,29.09,29.09,0,0,0-1-3.24,33.14,33.14,0,0,0-31-21.57h-30.69v29.1a50.33,50.33,0,0,1-27.18-14l-14.4-14.4v-42.32h72.27A74.82,74.82,0,0,1,6675.83,2472.22Z" transform="translate(0 -128.1)"/><path class="cls-7" d="M6515.3,2559.88a111.67,111.67,0,0,0,26.49,11l-66.87,68.71h-58.11l85.83-88.15A108.56,108.56,0,0,0,6515.3,2559.88Z" transform="translate(0 -128.1)"/><path class="cls-7" d="M6592.69,1791.39l-36.89,70.53v42.74H6541v-42.74L6504,1791.39h16.41l27.95,57.37,28-57.37Z" transform="translate(0 -128.1)"/><path class="cls-7" d="M6597.42,1835.83a40.13,40.13,0,0,1,15.19-16,41.73,41.73,0,0,1,21.54-5.69q11.7,0,20.31,5a33.62,33.62,0,0,1,12.84,12.67V1815.6h14.95v89.06H6667.3v-16.58a34.9,34.9,0,0,1-13.08,12.92,39.18,39.18,0,0,1-20.24,5.12,40.38,40.38,0,0,1-21.45-5.85,41,41,0,0,1-15.11-16.41,51.16,51.16,0,0,1-5.53-24Q6591.89,1846.15,6597.42,1835.83Zm65.82,6.59a28.8,28.8,0,0,0-11-11.46,31.12,31.12,0,0,0-30.31-.08,28.32,28.32,0,0,0-10.89,11.37,36.23,36.23,0,0,0-4.06,17.56,37,37,0,0,0,4.06,17.79,28.78,28.78,0,0,0,10.89,11.54,29.49,29.49,0,0,0,15.11,4,30,30,0,0,0,15.2-4,28.63,28.63,0,0,0,11-11.54,36.77,36.77,0,0,0,4.06-17.63A36.28,36.28,0,0,0,6663.24,1842.42Z" transform="translate(0 -128.1)"/><path class="cls-7" d="M6775.63,1823.81q10.08,9.84,10.08,28.36v52.49h-14.63v-50.38q0-13.32-6.66-20.39t-18.2-7.07q-11.7,0-18.61,7.31t-6.91,21.29v49.24h-14.78V1815.6h14.78v12.68a29.37,29.37,0,0,1,11.95-10.56,36.94,36.94,0,0,1,16.65-3.74Q6765.56,1814,6775.63,1823.81Z" transform="translate(0 -128.1)"/><path class="cls-7" d="M6890.69,1865.65h-71.18q.81,13.17,9,20.56a28.67,28.67,0,0,0,19.9,7.4q9.6,0,16-4.47a23.63,23.63,0,0,0,9-12h15.93a38.36,38.36,0,0,1-14.3,20.89q-10.74,8-26.66,8a45,45,0,0,1-22.67-5.69,40.24,40.24,0,0,1-15.68-16.17q-5.68-10.48-5.69-24.29t5.53-24.22a38.8,38.8,0,0,1,15.52-16,46.17,46.17,0,0,1,23-5.61,44.62,44.62,0,0,1,22.43,5.53,38.26,38.26,0,0,1,15,15.19,44.86,44.86,0,0,1,5.28,21.86A88.15,88.15,0,0,1,6890.69,1865.65Zm-18.53-26.56a24.25,24.25,0,0,0-10.16-9.27,31.72,31.72,0,0,0-14.22-3.17,27.43,27.43,0,0,0-19.09,7.15q-7.89,7.15-9,19.83h56.23A27.28,27.28,0,0,0,6872.16,1839.09Z" transform="translate(0 -128.1)"/><path class="cls-7" d="M6925.46,1784.4v120.26h-14.79V1784.4Z" transform="translate(0 -128.1)"/><path class="cls-7" d="M6578.72,1992.36q-9.68,9.36-29.5,9.35h-21.78V2049h-14.78V1935.73h36.56q19.17,0,29.17,9.26t10,23.89Q6588.38,1983,6578.72,1992.36Zm-11.3-8.2q5.85-5.37,5.85-15.28,0-21-24.05-21h-21.78v41.6h21.78Q6561.57,1989.52,6567.42,1984.16Z" transform="translate(0 -128.1)"/><path class="cls-7" d="M6607.23,1942.56a10.08,10.08,0,0,1,7.15-17.23,9.25,9.25,0,0,1,6.91,2.93,10.42,10.42,0,0,1,0,14.3,9.28,9.28,0,0,1-6.91,2.92A9.73,9.73,0,0,1,6607.23,1942.56Zm14.31,17.38V2049h-14.79v-89.06Z" transform="translate(0 -128.1)"/><path class="cls-7" d="M6716.44,1968.15q10.06,9.84,10.07,28.36V2049h-14.62v-50.38q0-13.32-6.67-20.39t-18.2-7.07q-11.7,0-18.6,7.31t-6.91,21.29V2049h-14.79v-89.06h14.79v12.68a29.35,29.35,0,0,1,11.94-10.56,37.08,37.08,0,0,1,16.66-3.74Q6706.36,1958.32,6716.44,1968.15Z" transform="translate(0 -128.1)"/><path class="cls-7" d="M6768.76,1972.13v52.49q0,6.51,2.77,9.18t9.58,2.68H6792V2049h-13.32q-12.36,0-18.53-5.69t-6.18-18.69v-52.49h-11.53v-12.19H6754v-22.42h14.79v22.42H6792v12.19Z" transform="translate(0 -128.1)"/><path class="cls-7" d="M6824.69,2044.77a40.51,40.51,0,0,1-15.93-16.17q-5.76-10.47-5.77-24.29a48.06,48.06,0,0,1,5.94-24.13,40.82,40.82,0,0,1,16.17-16.09,49.58,49.58,0,0,1,45.82,0,41,41,0,0,1,16.17,16q5.92,10.41,5.93,24.22t-6.09,24.29a42.21,42.21,0,0,1-16.49,16.17,47.24,47.24,0,0,1-23.08,5.69A45.49,45.49,0,0,1,6824.69,2044.77Zm37.62-11a28.42,28.42,0,0,0,11.29-11.21q4.31-7.47,4.31-18.2t-4.23-18.2a27.6,27.6,0,0,0-11.05-11.13,31.85,31.85,0,0,0-29.65,0,26.77,26.77,0,0,0-10.81,11.13q-4.07,7.47-4.06,18.2,0,10.89,4,18.36a26.35,26.35,0,0,0,10.64,11.13,29.88,29.88,0,0,0,14.63,3.66A31.13,31.13,0,0,0,6862.31,2033.72Z" transform="translate(0 -128.1)"/><path class="cls-7" d="M6443,1871.12a75,75,0,0,1-74,74.73l-23.22.26a88.48,88.48,0,0,1-12.66-.91q-2.7-.36-5.37-.9a92.21,92.21,0,0,1-36.24-16,89.6,89.6,0,0,1-10.52-9l-122.9-122.89h41.59a41.59,41.59,0,0,1,29.41,12.18l81.3,81.32a50.44,50.44,0,0,0,35.39,14.64h.67l22.1-.26a33.17,33.17,0,0,0,31.79-41.49,29.77,29.77,0,0,0-1-3.24A33.14,33.14,0,0,0,6368.3,1838h-30.69v29.1a50.39,50.39,0,0,1-27.18-14l-14.4-14.41v-42.32h72.27A74.82,74.82,0,0,1,6443,1871.12Z" transform="translate(0 -128.1)"/><path class="cls-7" d="M6282.5,1958.79a111.55,111.55,0,0,0,26.5,11l-66.87,68.71H6184l85.83-88.14A109.83,109.83,0,0,0,6282.5,1958.79Z" transform="translate(0 -128.1)"/><path class="cls-7" d="M7966.83,2279.59c0,48.79-39.7,88.88-88.48,89.37l-27.77.31a107.31,107.31,0,0,1-15.15-1.08c-2.14-.29-4.29-.66-6.42-1.09a110.39,110.39,0,0,1-33.06-12.46,110.71,110.71,0,0,1-22.86-17.46l-147-147h49.74a49.67,49.67,0,0,1,35.16,14.56l97.24,97.25a60.3,60.3,0,0,0,42.33,17.51h.79l26.44-.31a39.67,39.67,0,0,0,38-49.62,38.72,38.72,0,0,0-1.23-3.87,39.64,39.64,0,0,0-37.14-25.79h-36.7v34.79a60.18,60.18,0,0,1-32.51-16.69L7791,2240.83v-50.61h86.43A89.47,89.47,0,0,1,7966.83,2279.59Z" transform="translate(0 -128.1)"/><path class="cls-7" d="M7774.85,2384.43a133.72,133.72,0,0,0,31.68,13.13l-80,82.17h-69.5l102.65-105.42A129.56,129.56,0,0,0,7774.85,2384.43Z" transform="translate(0 -128.1)"/><path class="cls-7" d="M7454.32,2043.8l22.21,42.4,21.12,14.64-5.07,7.31-21.12-14.65-47.55-5.86,5.63-8.11,37.93,5.85-18.77-33.47Z" transform="translate(0 -128.1)"/><path class="cls-7" d="M7546.12,2024.79l-21.65,20.36,6.39,14.78-6.83,6.43-28.45-66.21,7.47-7,64.27,32.53-6.84,6.43Zm-6.81-3.52-32.53-16.63,14.59,33.5Z" transform="translate(0 -128.1)"/><path class="cls-7" d="M7635.37,1983.35l-7.71,4.44-58.07-29.14,27.08,47-7.71,4.44L7554.91,1951l7.7-4.44,58,29-27-46.91,7.71-4.44Z" transform="translate(0 -128.1)"/><path class="cls-7" d="M7654.17,1910.87l7,21.67,23.63-7.61,2.24,7-23.62,7.62,7.19,22.32,26.42-8.51,2.24,7-34.88,11.23-20.91-64.92,34.88-11.24,2.24,7Z" transform="translate(0 -128.1)"/><path class="cls-7" d="M7736.59,1945.72l23.63-3.23,1,7.17-32.44,4.43-9.22-67.48,8.81-1.21Z" transform="translate(0 -128.1)"/><path class="cls-7" d="M7875.74,1923.76q-6.69,4.54-18.44,2.53l-12.9-2.22-4.83,28-8.76-1.51,11.55-67.13,21.67,3.73q11.37,2,16.35,8.47a20.13,20.13,0,0,1-4.64,28.11Zm-5.86-6q4-2.58,5-8.46,2.13-12.42-12.12-14.87l-12.91-2.22-4.24,24.65,12.91,2.22Q7865.86,1920.32,7869.88,1917.74Z" transform="translate(0 -128.1)"/><path class="cls-7" d="M7932.89,1905.25l-22.06,64.44-8.42-2.88,22.07-64.44Z" transform="translate(0 -128.1)"/><path class="cls-7" d="M7987.61,2006.68l-7.78-4.3-5.11-64.77-26.21,47.49-7.79-4.3,33-59.72,7.79,4.3,5.16,64.68,26.16-47.4,7.78,4.3Z" transform="translate(0 -128.1)"/><path class="cls-7" d="M8089.12,2001.48l-4.75,5.45-14-12.2-40,45.9-6.71-5.85,40-45.89-14.07-12.27,4.75-5.45Z" transform="translate(0 -128.1)"/><path class="cls-7" d="M8074.25,2080.88a32.67,32.67,0,0,1,2.71-17.31,37.69,37.69,0,0,1,28.94-21.19,32.63,32.63,0,0,1,17.32,2.64,36,36,0,0,1,20.49,28,32.33,32.33,0,0,1-2.69,17.24,38.26,38.26,0,0,1-29,21.25,32.33,32.33,0,0,1-17.25-2.63,36.11,36.11,0,0,1-20.5-28Zm23.14,20.43a23.48,23.48,0,0,0,13,1.65,32.86,32.86,0,0,0,23.06-16.89,23.59,23.59,0,0,0,2.33-12.79,26.67,26.67,0,0,0-15.25-20.81,23.5,23.5,0,0,0-12.89-1.64,32.82,32.82,0,0,0-23.06,16.88,23.48,23.48,0,0,0-2.34,12.86,26.51,26.51,0,0,0,15.19,20.74Z" transform="translate(0 -128.1)"/><path class="cls-7" d="M7594.13,2636.25a32.7,32.7,0,0,1,16.55-5.64,33.81,33.81,0,0,1,17.43,3.71,35.08,35.08,0,0,1,15,13.52,30.9,30.9,0,0,1,4,19.06l-9.53-4.77a21.38,21.38,0,0,0-3-12.13,23.59,23.59,0,0,0-9.91-8.69,25,25,0,0,0-12.94-2.77,23.2,23.2,0,0,0-12.17,4.45,33.16,33.16,0,0,0-12.79,25.5,23.12,23.12,0,0,0,3.72,12.42,24.82,24.82,0,0,0,9.95,8.71,23.89,23.89,0,0,0,12.87,2.79,21.11,21.11,0,0,0,11.52-4.77l9.53,4.77a30.63,30.63,0,0,1-17.61,8.07,35.25,35.25,0,0,1-19.77-4,34,34,0,0,1-13.42-11.71,32.35,32.35,0,0,1-5.43-16.54,37.9,37.9,0,0,1,16.06-32Z" transform="translate(0 -128.1)"/><path class="cls-7" d="M7680.35,2723.84a32.49,32.49,0,0,1-9.37-14.79,37.65,37.65,0,0,1,7.79-35,32.6,32.6,0,0,1,14.76-9.44,36.08,36.08,0,0,1,33.87,7.54,32.36,32.36,0,0,1,9.33,14.74,38.25,38.25,0,0,1-7.81,35.11,32.27,32.27,0,0,1-14.7,9.39,36.07,36.07,0,0,1-33.87-7.54Zm30.86.11a23.33,23.33,0,0,0,10.84-7.3,32.87,32.87,0,0,0,6.21-27.9,23.69,23.69,0,0,0-6.68-11.15,26.73,26.73,0,0,0-25.19-5.6,23.5,23.5,0,0,0-10.77,7.26,32.82,32.82,0,0,0-6.21,27.91,23.38,23.38,0,0,0,6.72,11.2,26.45,26.45,0,0,0,25.08,5.58Z" transform="translate(0 -128.1)"/><path class="cls-7" d="M7811.15,2726.23l-29.71.38-5.27,15.22-9.38.12,23.75-68,10.26-.13,25.4,67.4-9.38.12Zm-2.63-7.2-12.76-34.24-11.87,34.56Z" transform="translate(0 -128.1)"/><path class="cls-7" d="M7854.51,2685.32a32.62,32.62,0,0,1,8.9-15.05,33.79,33.79,0,0,1,15.65-8.53,35,35,0,0,1,20.17.52,30.83,30.83,0,0,1,15.44,11.87l-10.34,2.57a21.34,21.34,0,0,0-10.21-7.23,23.57,23.57,0,0,0-13.17-.14,24.74,24.74,0,0,0-11.62,6.31,23.23,23.23,0,0,0-6.36,11.3,33.2,33.2,0,0,0,6.89,27.69,23.23,23.23,0,0,0,10.91,7,24.91,24.91,0,0,0,13.23.13,23.89,23.89,0,0,0,11.58-6.26,21,21,0,0,0,5.64-11.12l10.34-2.57a30.64,30.64,0,0,1-8.11,17.58,35.25,35.25,0,0,1-17.59,9.86,34,34,0,0,1-17.81-.15,32.41,32.41,0,0,1-14.89-9,37.93,37.93,0,0,1-8.65-34.76Z" transform="translate(0 -128.1)"/><path class="cls-7" d="M7981.54,2620.83l31.17,60.56-7.91,4.07L7990.67,2658l-30.85,15.88,14.14,27.46-7.91,4.07-31.17-60.56,7.9-4.07,13.69,26.58,30.85-15.87-13.69-26.59Z" transform="translate(0 -128.1)"/><path class="cls-7" d="M7791,2606.59a293.62,293.62,0,1,1,207.62-86A291.67,291.67,0,0,1,7791,2606.59Zm0-568.24c-151.43,0-274.62,123.19-274.62,274.62s123.19,274.62,274.62,274.62S8065.6,2464.39,8065.6,2313,7942.41,2038.35,7791,2038.35Z" transform="translate(0 -128.1)"/><path class="cls-7" d="M7530.83,2613.71a398.1,398.1,0,0,1-110.55-444.9l17.7,6.89a379.11,379.11,0,0,0,105.29,423.64Z" transform="translate(0 -128.1)"/><path class="cls-7" d="M8051.13,2613.71l-12.44-14.37A379.07,379.07,0,0,0,8144,2175.7l17.71-6.89a398.1,398.1,0,0,1-110.55,444.9Z" transform="translate(0 -128.1)"/><g class="cls-12"><path class="cls-13" d="M8117.05,8991.6h18.81v3.26h-23.13v-3l18.54-30.61H8113V8958h22.55V8961Z" transform="translate(0 -128.1)"/><path class="cls-13" d="M8171.53,8958l-14,36.83h-4.21l-14-36.83h4l12.07,32.83,12.17-32.83Z" transform="translate(0 -128.1)"/><path class="cls-13" d="M8192.18,8966.7a17.23,17.23,0,0,1,6.48-6.69,17.86,17.86,0,0,1,9.17-2.4,18.62,18.62,0,0,1,10.56,2.93,16.52,16.52,0,0,1,6.4,8.24h-4.32a12.7,12.7,0,0,0-4.82-5.85,15.33,15.33,0,0,0-15.12-.21,13.23,13.23,0,0,0-5.08,5.46,19.23,19.23,0,0,0,0,16.46,13.21,13.21,0,0,0,5.08,5.43,15.4,15.4,0,0,0,15.12-.19,12.49,12.49,0,0,0,4.82-5.77h4.32a16.37,16.37,0,0,1-6.42,8.17,18.84,18.84,0,0,1-10.54,2.9,17.86,17.86,0,0,1-9.17-2.4,17.29,17.29,0,0,1-6.48-6.66,21.08,21.08,0,0,1,0-19.42Z" transform="translate(0 -128.1)"/><path class="cls-13" d="M8239.52,8967a12,12,0,0,1,6.14-1.47v3.84h-1a9.3,9.3,0,0,0-6.43,2.16c-1.62,1.45-2.42,3.85-2.42,7.22v16.07h-3.69V8966.1h3.69v5.11A9,9,0,0,1,8239.52,8967Z" transform="translate(0 -128.1)"/><path class="cls-13" d="M8277.11,8981.9h-23.86a11.53,11.53,0,0,0,1.58,5.59,9.31,9.31,0,0,0,3.74,3.5,10.94,10.94,0,0,0,5.06,1.19,10.15,10.15,0,0,0,6-1.74,8.19,8.19,0,0,0,3.24-4.69h3.9a12.15,12.15,0,0,1-4.51,6.87,13.73,13.73,0,0,1-8.66,2.66,14.5,14.5,0,0,1-7.27-1.81,12.93,12.93,0,0,1-5-5.17,16.13,16.13,0,0,1-1.81-7.82,16.41,16.41,0,0,1,1.79-7.85,12.47,12.47,0,0,1,5-5.17,14.85,14.85,0,0,1,7.33-1.79,14.1,14.1,0,0,1,7.19,1.79,12.49,12.49,0,0,1,4.74,4.83,13.71,13.71,0,0,1,1.66,6.71C8277.22,8980.27,8277.18,8981.23,8277.11,8981.9Zm-4.92-8.48a8.83,8.83,0,0,0-3.66-3.43,11.23,11.23,0,0,0-5.06-1.16,10,10,0,0,0-7,2.64,10.53,10.53,0,0,0-3.21,7.43h20.23A10.33,10.33,0,0,0,8272.19,8973.42Z" transform="translate(0 -128.1)"/><path class="cls-13" d="M8284,8972.65a12.64,12.64,0,0,1,4.9-5.16,13.88,13.88,0,0,1,7.09-1.82,13,13,0,0,1,7.09,1.9,11,11,0,0,1,4.29,4.85v-6.32h3.69v28.76h-3.69v-6.37a11.47,11.47,0,0,1-4.35,4.87,12.76,12.76,0,0,1-7.08,1.92,13.62,13.62,0,0,1-7-1.84,12.8,12.8,0,0,1-4.9-5.22,18.1,18.1,0,0,1,0-15.57Zm21.95,1.72a10.13,10.13,0,0,0-3.88-4.06,10.53,10.53,0,0,0-5.4-1.42,10.9,10.9,0,0,0-5.48,1.37,9.72,9.72,0,0,0-3.82,4,12.92,12.92,0,0,0-1.39,6.19,13.17,13.17,0,0,0,1.39,6.19,9.84,9.84,0,0,0,3.82,4,10.72,10.72,0,0,0,5.48,1.4,10.53,10.53,0,0,0,5.4-1.42,10.13,10.13,0,0,0,3.88-4.06,13.86,13.86,0,0,0,0-12.22Z" transform="translate(0 -128.1)"/><path class="cls-13" d="M8324.32,8969.2v17.86c0,1.76.34,3,1,3.64a4.93,4.93,0,0,0,3.53,1h3.38v3.16h-4q-3.9,0-5.79-1.81c-1.27-1.22-1.9-3.21-1.9-6V8969.2h-4v-3.1h4v-7.22h3.74v7.22h7.91v3.1Z" transform="translate(0 -128.1)"/><path class="cls-13" d="M8338.23,8959.88a2.65,2.65,0,0,1-.79-1.95,2.55,2.55,0,0,1,.79-1.92,2.72,2.72,0,0,1,3.79,0,2.55,2.55,0,0,1,.79,1.92,2.65,2.65,0,0,1-.79,1.95,2.67,2.67,0,0,1-3.79,0Zm3.74,6.22v28.76h-3.69V8966.1Z" transform="translate(0 -128.1)"/><path class="cls-13" d="M8360.57,8991.28l9.69-25.18h3.9l-11.53,28.76h-4.17l-11.54-28.76h4Z" transform="translate(0 -128.1)"/><path class="cls-13" d="M8384.46,8993.47a13.23,13.23,0,0,1-5.11-5.17,17.18,17.18,0,0,1,0-15.65,13.2,13.2,0,0,1,5.16-5.16,14.84,14.84,0,0,1,7.33-1.82,15,15,0,0,1,7.35,1.82,13.07,13.07,0,0,1,5.16,5.16,15.78,15.78,0,0,1,1.87,7.83,15.59,15.59,0,0,1-1.9,7.8,13.2,13.2,0,0,1-5.21,5.19,15.14,15.14,0,0,1-7.38,1.81A14.69,14.69,0,0,1,8384.46,8993.47Zm12.57-2.69a9.88,9.88,0,0,0,3.93-3.9,12.65,12.65,0,0,0,1.5-6.4,12.86,12.86,0,0,0-1.48-6.4,9.63,9.63,0,0,0-3.9-3.9,11.39,11.39,0,0,0-10.53,0,9.53,9.53,0,0,0-3.88,3.9,14.85,14.85,0,0,0,0,12.8,9.58,9.58,0,0,0,3.85,3.9,10.87,10.87,0,0,0,5.24,1.29A11,11,0,0,0,8397,8990.78Z" transform="translate(0 -128.1)"/><path class="cls-13" d="M8445.29,8973.79v3.11H8424.8v-3.11Z" transform="translate(0 -128.1)"/><path class="cls-13" d="M8486.23,8958v27.88a9.11,9.11,0,0,1-2.58,6.77,9.39,9.39,0,0,1-6.9,2.55,9.53,9.53,0,0,1-7.14-2.71,10,10,0,0,1-2.66-7.35h3.74a8,8,0,0,0,1.5,4.9,6.42,6.42,0,0,0,8.93.16,6.59,6.59,0,0,0,1.42-4.32V8958Z" transform="translate(0 -128.1)"/><path class="cls-13" d="M8520.42,8966.1v28.76h-3.68v-5.06a8.83,8.83,0,0,1-3.9,4.11,12.23,12.23,0,0,1-5.9,1.43,11.56,11.56,0,0,1-8.43-3.19q-3.27-3.19-3.27-9.25v-16.8h3.64v16.38q0,4.7,2.34,7.17a8.39,8.39,0,0,0,6.4,2.47,8.66,8.66,0,0,0,6.64-2.63q2.48-2.64,2.48-7.75V8966.1Z" transform="translate(0 -128.1)"/><path class="cls-13" d="M8532.54,8955.87v39h-3.69v-39Z" transform="translate(0 -128.1)"/><path class="cls-13" d="M8540.87,8959.88a2.65,2.65,0,0,1-.79-1.95,2.55,2.55,0,0,1,.79-1.92,2.72,2.72,0,0,1,3.79,0,2.55,2.55,0,0,1,.79,1.92,2.7,2.7,0,0,1-2.69,2.74A2.6,2.6,0,0,1,8540.87,8959.88Zm3.74,6.22v28.76h-3.69V8966.1Z" transform="translate(0 -128.1)"/><path class="cls-13" d="M8558.28,8993.47a13.23,13.23,0,0,1-5.11-5.17,17.18,17.18,0,0,1,0-15.65,13.2,13.2,0,0,1,5.16-5.16,15.69,15.69,0,0,1,14.67,0,13,13,0,0,1,5.17,5.16,15.88,15.88,0,0,1,1.87,7.83,15.7,15.7,0,0,1-1.9,7.8,13.23,13.23,0,0,1-5.22,5.19,15.1,15.1,0,0,1-7.37,1.81A14.67,14.67,0,0,1,8558.28,8993.47Zm12.57-2.69a9.86,9.86,0,0,0,3.92-3.9,12.65,12.65,0,0,0,1.5-6.4,12.86,12.86,0,0,0-1.47-6.4,9.75,9.75,0,0,0-3.9-3.9,11.41,11.41,0,0,0-10.54,0,9.5,9.5,0,0,0-3.87,3.9,14.85,14.85,0,0,0,0,12.8,9.52,9.52,0,0,0,3.85,3.9,10.85,10.85,0,0,0,5.24,1.29A11.08,11.08,0,0,0,8570.85,8990.78Z" transform="translate(0 -128.1)"/><path class="cls-13" d="M8614.71,8978.92q5.3-5.76,5.29-11.3a8.83,8.83,0,0,0-1.81-5.82c-1.22-1.46-3.19-2.19-5.93-2.19a7.77,7.77,0,0,0-6.19,2.51,10.81,10.81,0,0,0-2.45,6.66H8600q.33-5.85,3.61-9.09a13.21,13.21,0,0,1,16.89-.37q3.16,2.88,3.16,8.14c0,4.26-1.76,8.37-5.29,12.36a82.64,82.64,0,0,1-13,11.67h19.49v3.11h-25.13V8992A110.8,110.8,0,0,0,8614.71,8978.92Z" transform="translate(0 -128.1)"/><path class="cls-13" d="M8633.39,8961.56q2.79-5,10-5t10,5q2.79,5,2.79,14.07,0,9.23-2.79,14.28t-10,5.06q-7.27,0-10-5.06t-2.77-14.28Q8630.59,8966.57,8633.39,8961.56Zm18.49,5.8a10.58,10.58,0,0,0-2.69-5.43,9.22,9.22,0,0,0-11.59,0,10.65,10.65,0,0,0-2.69,5.43,43,43,0,0,0-.68,8.27,44.45,44.45,0,0,0,.68,8.46,10.68,10.68,0,0,0,2.69,5.45,9.18,9.18,0,0,0,11.59,0,10.6,10.6,0,0,0,2.69-5.45,43.64,43.64,0,0,0,.68-8.46A42.19,42.19,0,0,0,8651.88,8967.36Z" transform="translate(0 -128.1)"/><path class="cls-13" d="M8677.3,8978.92q5.3-5.76,5.3-11.3a8.83,8.83,0,0,0-1.82-5.82q-1.82-2.19-5.93-2.19a7.78,7.78,0,0,0-6.19,2.51,10.87,10.87,0,0,0-2.45,6.66h-3.58q.32-5.85,3.61-9.09a13.2,13.2,0,0,1,16.88-.37q3.16,2.88,3.16,8.14c0,4.26-1.76,8.37-5.29,12.36a82.64,82.64,0,0,1-13,11.67h19.49v3.11h-25.13V8992A110.8,110.8,0,0,0,8677.3,8978.92Z" transform="translate(0 -128.1)"/><path class="cls-13" d="M8691.39,8960.4v-3.31h9v37.77h-3.74V8960.4Z" transform="translate(0 -128.1)"/></g><path class="cls-11" d="M891.08,7816.2c0,67.05-54.56,122.16-121.63,122.84l-38.16.44a147.49,147.49,0,0,1-20.82-1.5c-3-.41-5.89-.9-8.83-1.5a151.36,151.36,0,0,1-45.44-17.13,145.76,145.76,0,0,1-14.11-9.18,147.41,147.41,0,0,1-17.31-14.8l-202-202h68.38a68.32,68.32,0,0,1,48.32,20L673.11,7847a82.94,82.94,0,0,0,58.18,24.07h1.1l36.34-.42A54.56,54.56,0,0,0,821,7802.5c-.48-1.82-1.05-3.61-1.69-5.33a54.6,54.6,0,0,0-45-35.12,53,53,0,0,0-6.07-.34H718a83,83,0,0,1-44.87-23l-23.66-23.66v-21.73h118.8A123,123,0,0,1,891.08,7816.2Z" transform="translate(0 -128.1)"/><path class="cls-11" d="M648,8001.69l-87.19,89.6H465.3l119.19-122.4c3.14,2.73,6.41,5.33,9.78,7.79a145.76,145.76,0,0,0,14.11,9.18A151.05,151.05,0,0,0,648,8001.69Z" transform="translate(0 -128.1)"/><rect class="cls-14" x="1158.47" y="7438.01" width="321.39" height="321.39"/><path class="cls-11" d="M1398,7701.18a41.51,41.51,0,0,1-41,41.36l-12.85.15a50.31,50.31,0,0,1-7-.51c-1-.14-2-.3-3-.5a51,51,0,0,1-15.3-5.77,49,49,0,0,1-4.75-3.09,49.52,49.52,0,0,1-5.83-5l-68-68h23a23,23,0,0,1,16.27,6.74l45,45a27.92,27.92,0,0,0,19.59,8.1h.38l12.23-.14a18.35,18.35,0,0,0,17.59-23c-.16-.61-.35-1.21-.56-1.79a18.42,18.42,0,0,0-15.15-11.83,17.2,17.2,0,0,0-2-.11h-16.93a28,28,0,0,1-15.11-7.73l-8-8v-7.32h40A41.42,41.42,0,0,1,1398,7701.18Z" transform="translate(0 -128.1)"/><path class="cls-11" d="M1316.17,7763.63l-29.36,30.17h-32.17l40.13-41.21c1.06.92,2.16,1.79,3.3,2.62a47.15,47.15,0,0,0,4.75,3.09A50.58,50.58,0,0,0,1316.17,7763.63Z" transform="translate(0 -128.1)"/><rect class="cls-15" x="1658.07" y="7438.01" width="321.39" height="321.39"/><path class="cls-11" d="M1897.61,7701.18a41.51,41.51,0,0,1-40.95,41.36l-12.85.15a50.09,50.09,0,0,1-7-.51c-1-.14-2-.3-3-.5a51.11,51.11,0,0,1-20-8.86,49.52,49.52,0,0,1-5.83-5l-68-68h23a23,23,0,0,1,16.27,6.74l45,45a27.89,27.89,0,0,0,19.59,8.1h.37l12.23-.14a18.41,18.41,0,0,0,18.18-18.34,18.75,18.75,0,0,0-.58-4.62c-.16-.61-.36-1.21-.57-1.79a18.38,18.38,0,0,0-15.15-11.83,17.2,17.2,0,0,0-2-.11h-16.93a28,28,0,0,1-15.11-7.73l-8-8v-7.32h40A41.42,41.42,0,0,1,1897.61,7701.18Z" transform="translate(0 -128.1)"/><path class="cls-11" d="M1815.77,7763.63l-29.36,30.17h-32.17l40.14-41.21c1,.92,2.15,1.79,3.29,2.62a47.15,47.15,0,0,0,4.75,3.09A50.58,50.58,0,0,0,1815.77,7763.63Z" transform="translate(0 -128.1)"/><rect class="cls-16" x="2157.67" y="7438.01" width="321.39" height="321.39"/><path class="cls-11" d="M2397.21,7701.18a41.51,41.51,0,0,1-40.95,41.36l-12.85.15a50.09,50.09,0,0,1-7-.51c-1-.14-2-.3-3-.5a51.11,51.11,0,0,1-20.05-8.86,49.52,49.52,0,0,1-5.83-5l-68-68h23a23,23,0,0,1,16.27,6.74l45,45a27.92,27.92,0,0,0,19.59,8.1h.37l12.24-.14a18.41,18.41,0,0,0,18.17-18.34,18.75,18.75,0,0,0-.58-4.62,17.76,17.76,0,0,0-.57-1.79,18.38,18.38,0,0,0-15.15-11.83,17.2,17.2,0,0,0-2-.11h-16.93a28,28,0,0,1-15.11-7.73l-8-8v-7.32h40A41.42,41.42,0,0,1,2397.21,7701.18Z" transform="translate(0 -128.1)"/><path class="cls-11" d="M2315.37,7763.63,2286,7793.8h-32.18l40.14-41.21c1.06.92,2.16,1.79,3.29,2.62a49.52,49.52,0,0,0,4.75,3.09A50.58,50.58,0,0,0,2315.37,7763.63Z" transform="translate(0 -128.1)"/><path class="cls-9" d="M6284.86,7545.35c0,64.26-52.28,117.08-116.54,117.72l-36.58.41a140.87,140.87,0,0,1-19.94-1.43c-2.83-.38-5.66-.86-8.47-1.43a145.47,145.47,0,0,1-43.54-16.41,145.72,145.72,0,0,1-30.11-23l-193.6-193.58h65.52a65.44,65.44,0,0,1,46.32,19.18L6076,7574.92a79.44,79.44,0,0,0,55.74,23.06h1.05l34.82-.41a52.25,52.25,0,0,0,50.08-65.35,50.46,50.46,0,0,0-1.62-5.1,52.21,52.21,0,0,0-48.92-34h-48.34V7539a79.28,79.28,0,0,1-42.81-22l-22.69-22.68v-66.67h113.84A117.84,117.84,0,0,1,6284.86,7545.35Z" transform="translate(0 -128.1)"/><path class="cls-9" d="M6032,7683.45a176.61,176.61,0,0,0,41.73,17.29L5968.4,7809h-91.55l135.21-138.85A172.63,172.63,0,0,0,6032,7683.45Z" transform="translate(0 -128.1)"/><path class="cls-10" d="M4738.06,8187.37c0,64.27-52.28,117.08-116.54,117.72l-36.58.41a141,141,0,0,1-19.94-1.43c-2.83-.38-5.66-.86-8.46-1.43a145.43,145.43,0,0,1-43.55-16.41,145.72,145.72,0,0,1-30.11-23l-193.6-193.58h65.52a65.44,65.44,0,0,1,46.32,19.18l128.08,128.1a79.44,79.44,0,0,0,55.74,23.06H4586l34.82-.41a52.25,52.25,0,0,0,50.08-65.35,50.46,50.46,0,0,0-1.62-5.1,52.21,52.21,0,0,0-48.92-34H4572V8181a79.28,79.28,0,0,1-42.81-22l-22.69-22.68v-66.67h113.84A117.84,117.84,0,0,1,4738.06,8187.37Z" transform="translate(0 -128.1)"/><path class="cls-10" d="M4485.2,8325.47a176.61,176.61,0,0,0,41.73,17.29L4421.6,8451h-91.55l135.21-138.85A171.35,171.35,0,0,0,4485.2,8325.47Z" transform="translate(0 -128.1)"/><path class="cls-11" d="M5511.46,8210c0,64.26-52.28,117.08-116.54,117.71l-36.58.42a142.47,142.47,0,0,1-19.94-1.43c-2.83-.38-5.66-.87-8.46-1.43a145.43,145.43,0,0,1-43.55-16.41,145.36,145.36,0,0,1-30.11-23l-193.6-193.58h65.52a65.45,65.45,0,0,1,46.32,19.19l128.08,128.09a79.44,79.44,0,0,0,55.74,23.06h1.05l34.82-.41a52.25,52.25,0,0,0,50.08-65.35,51.28,51.28,0,0,0-1.62-5.1,52.22,52.22,0,0,0-48.92-34h-48.34v45.83a79.28,79.28,0,0,1-42.81-22l-22.69-22.69v-66.67h113.84A117.85,117.85,0,0,1,5511.46,8210Z" transform="translate(0 -128.1)"/><path class="cls-11" d="M5258.6,8348.05a176.19,176.19,0,0,0,41.73,17.29L5195,8473.57h-91.55l135.21-138.84A172.55,172.55,0,0,0,5258.6,8348.05Z" transform="translate(0 -128.1)"/><path class="cls-7" d="M6284.86,8210c0,64.26-52.28,117.08-116.54,117.71l-36.58.42a142.37,142.37,0,0,1-19.94-1.43c-2.83-.38-5.66-.87-8.47-1.43a145.47,145.47,0,0,1-43.54-16.41,145.36,145.36,0,0,1-30.11-23l-193.6-193.58h65.52a65.45,65.45,0,0,1,46.32,19.19L6076,8239.52a79.44,79.44,0,0,0,55.74,23.06h1.05l34.82-.41a52.25,52.25,0,0,0,50.08-65.35,51.28,51.28,0,0,0-1.62-5.1,52.22,52.22,0,0,0-48.92-34h-48.34v45.83a79.28,79.28,0,0,1-42.81-22l-22.69-22.69v-66.67h113.84A117.85,117.85,0,0,1,6284.86,8210Z" transform="translate(0 -128.1)"/><path class="cls-7" d="M6032,8348.05a176.19,176.19,0,0,0,41.73,17.29L5968.4,8473.57h-91.55l135.21-138.84A172.55,172.55,0,0,0,6032,8348.05Z" transform="translate(0 -128.1)"/><path d="M8332.2,7457.3c0,67.11-54.6,122.28-121.71,122.94l-38.21.43a147.72,147.72,0,0,1-20.83-1.49c-2.95-.4-5.9-.9-8.83-1.5a151.39,151.39,0,0,1-45.48-17.13,147.47,147.47,0,0,1-14.13-9.2,145.93,145.93,0,0,1-17.32-14.82L7863.5,7334.36h68.43a68.35,68.35,0,0,1,48.37,20l133.76,133.77a83,83,0,0,0,58.22,24.09h1.1l36.37-.43a54.58,54.58,0,0,0,52.3-68.25,52.51,52.51,0,0,0-1.7-5.33,54.52,54.52,0,0,0-51.09-35.48h-50.48v47.86a82.78,82.78,0,0,1-44.72-22.95L8090.37,7404v-69.63h118.89A123.08,123.08,0,0,1,8332.2,7457.3Z" transform="translate(0 -128.1)"/><path d="M8068.12,7601.52a183.89,183.89,0,0,0,43.58,18.06l-110,113h-95.61l141.21-145A178,178,0,0,0,8068.12,7601.52Z" transform="translate(0 -128.1)"/><rect x="7792.26" y="7804.97" width="611.19" height="611.19"/><path class="cls-8" d="M8332.2,8146.35c0,67.11-54.6,122.27-121.71,122.94l-38.21.43a147.72,147.72,0,0,1-20.83-1.49c-2.95-.4-5.9-.9-8.83-1.5a151.68,151.68,0,0,1-45.48-17.14,152.27,152.27,0,0,1-31.45-24L7863.5,8023.41h68.43a68.38,68.38,0,0,1,48.37,20l133.76,133.78a83,83,0,0,0,58.22,24.09h1.1l36.37-.43a54.58,54.58,0,0,0,52.3-68.25,52.51,52.51,0,0,0-1.7-5.33,54.52,54.52,0,0,0-51.09-35.48h-50.48v47.86a82.85,82.85,0,0,1-44.72-23L8090.37,8093v-69.63h118.89A123.08,123.08,0,0,1,8332.2,8146.35Z" transform="translate(0 -128.1)"/><path class="cls-8" d="M8068.12,8290.57a183.89,183.89,0,0,0,43.58,18.06l-110,113h-95.61l141.21-145A179.31,179.31,0,0,0,8068.12,8290.57Z" transform="translate(0 -128.1)"/><path class="cls-7" d="M6977.41,5202.84l-40.85,78.1v47.32h-16.37v-47.32l-41-78.1h18.17l30.95,63.52,31-63.52Z" transform="translate(0 -128.1)"/><path class="cls-7" d="M6982.65,5252.05a44.49,44.49,0,0,1,16.82-17.72,46.16,46.16,0,0,1,23.85-6.3q12.94,0,22.49,5.58a37.3,37.3,0,0,1,14.22,14v-18h16.55v98.61H7060v-18.35a38.64,38.64,0,0,1-14.49,14.3,43.34,43.34,0,0,1-22.4,5.67,44.71,44.71,0,0,1-23.76-6.48,45.4,45.4,0,0,1-16.73-18.17,56.61,56.61,0,0,1-6.12-26.63Q6976.53,5263.48,6982.65,5252.05Zm72.88,7.29a31.84,31.84,0,0,0-12.15-12.69,34.47,34.47,0,0,0-33.56-.08,31.31,31.31,0,0,0-12.06,12.59,40.1,40.1,0,0,0-4.49,19.44q0,11.32,4.49,19.7a31.83,31.83,0,0,0,12.06,12.78,32.62,32.62,0,0,0,16.74,4.41,33.09,33.09,0,0,0,16.82-4.41,31.64,31.64,0,0,0,12.15-12.78,40.73,40.73,0,0,0,4.5-19.52A40.22,40.22,0,0,0,7055.53,5259.34Z" transform="translate(0 -128.1)"/><path class="cls-7" d="M7180,5238.74q11.16,10.89,11.16,31.4v58.12H7175v-55.78q0-14.76-7.38-22.59t-20.16-7.82q-12.94,0-20.6,8.09t-7.65,23.58v54.52h-16.37v-98.61h16.37v14a32.52,32.52,0,0,1,13.23-11.7,41,41,0,0,1,18.44-4.14Q7168.83,5227.85,7180,5238.74Z" transform="translate(0 -128.1)"/><path class="cls-7" d="M7307.39,5285.07h-78.82q.9,14.58,10,22.77a31.72,31.72,0,0,0,22,8.18q10.62,0,17.73-4.94a26.24,26.24,0,0,0,10-13.23H7306a42.34,42.34,0,0,1-15.84,23.12q-11.88,8.91-29.51,8.91a49.82,49.82,0,0,1-25.1-6.3,44.51,44.51,0,0,1-17.37-17.9q-6.3-11.61-6.3-26.9T7218,5252a43,43,0,0,1,17.19-17.72q11.07-6.21,25.46-6.21a49.44,49.44,0,0,1,24.83,6.12,42.42,42.42,0,0,1,16.65,16.82,49.78,49.78,0,0,1,5.85,24.21A96.06,96.06,0,0,1,7307.39,5285.07Zm-20.52-29.42a26.87,26.87,0,0,0-11.24-10.25,35.09,35.09,0,0,0-15.75-3.51,30.35,30.35,0,0,0-21.14,7.91q-8.73,7.92-10,22H7291A30.21,30.21,0,0,0,7286.87,5255.65Z" transform="translate(0 -128.1)"/><path class="cls-7" d="M7345.9,5195.1v133.16h-16.38V5195.1Z" transform="translate(0 -128.1)"/><path class="cls-7" d="M7508.52,5265.55q-10.71,10.35-32.66,10.35h-24.11v52.36h-16.38V5202.84h40.49q21.23,0,32.3,10.26t11.07,26.45Q7519.23,5255.2,7508.52,5265.55Zm-12.51-9.09q6.48-5.94,6.48-16.91,0-23.22-26.63-23.22h-24.11v46.07h24.11Q7489.53,5262.4,7496,5256.46Z" transform="translate(0 -128.1)"/><path class="cls-7" d="M7540.1,5210.4a11.16,11.16,0,0,1,7.92-19.08,10.27,10.27,0,0,1,7.65,3.24,11.56,11.56,0,0,1,0,15.84,10.26,10.26,0,0,1-7.65,3.23A10.76,10.76,0,0,1,7540.1,5210.4Zm15.84,19.25v98.61h-16.38v-98.61Z" transform="translate(0 -128.1)"/><path class="cls-7" d="M7661,5238.74q11.16,10.89,11.16,31.4v58.12H7656v-55.78q0-14.76-7.37-22.59t-20.16-7.82q-13,0-20.6,8.09t-7.65,23.58v54.52h-16.38v-98.61h16.38v14a32.52,32.52,0,0,1,13.23-11.7,41,41,0,0,1,18.44-4.14Q7649.87,5227.85,7661,5238.74Z" transform="translate(0 -128.1)"/><path class="cls-7" d="M7719,5243.15v58.12q0,7.2,3.06,10.17t10.62,3h12.06v13.85h-14.76q-13.68,0-20.51-6.3t-6.84-20.69v-58.12h-12.78v-13.5h12.78v-24.83H7719v24.83h25.74v13.5Z" transform="translate(0 -128.1)"/><path class="cls-7" d="M7780.89,5323.58a44.67,44.67,0,0,1-17.63-17.9q-6.39-11.61-6.39-26.9,0-15.12,6.57-26.73a45.29,45.29,0,0,1,17.9-17.81,54.95,54.95,0,0,1,50.75,0A45.45,45.45,0,0,1,7850,5252q6.57,11.52,6.57,26.82t-6.75,26.9a46.73,46.73,0,0,1-18.26,17.9,52.39,52.39,0,0,1-25.56,6.3A50.49,50.49,0,0,1,7780.89,5323.58Zm41.66-12.23a31.5,31.5,0,0,0,12.51-12.42q4.75-8.28,4.76-20.15t-4.67-20.16a30.71,30.71,0,0,0-12.24-12.33,35.39,35.39,0,0,0-32.84,0,29.75,29.75,0,0,0-12,12.33q-4.5,8.28-4.5,20.16,0,12,4.41,20.33a29.31,29.31,0,0,0,11.79,12.33,33.11,33.11,0,0,0,16.19,4.05A34.59,34.59,0,0,0,7822.55,5311.35Z" transform="translate(0 -128.1)"/><path class="cls-7" d="M7501.89,4926a75,75,0,0,1-74,74.73l-23.23.26A88.58,88.58,0,0,1,7392,5000c-1.79-.24-3.59-.54-5.37-.9a92.63,92.63,0,0,1-27.64-10.42,91,91,0,0,1-8.59-5.59,89.7,89.7,0,0,1-10.53-9L7217,4851.22h41.6a41.55,41.55,0,0,1,29.4,12.18l81.31,81.32a50.42,50.42,0,0,0,35.38,14.64h.67l22.11-.26a33.17,33.17,0,0,0,31.79-41.49c-.29-1.1-.64-2.19-1-3.24a33.15,33.15,0,0,0-31.06-21.57h-30.68v29.1A50.35,50.35,0,0,1,7369.3,4908l-14.41-14.41v-42.32h72.27A74.82,74.82,0,0,1,7501.89,4926Z" transform="translate(0 -128.1)"/><path class="cls-7" d="M7341.37,5013.62a111.47,111.47,0,0,0,26.49,11L7301,5093.3h-58.12l85.84-88.14A109,109,0,0,0,7341.37,5013.62Z" transform="translate(0 -128.1)"/><path class="cls-7" d="M7097,5371.59v5.74h-19.18v63.37h-6.92v-63.37h-19.28v-5.74Z" transform="translate(0 -128.1)"/><path class="cls-7" d="M7117.87,5438.08a24.62,24.62,0,0,1-9.59-9.69,29.58,29.58,0,0,1-3.51-14.68,29.28,29.28,0,0,1,3.56-14.68,24.8,24.8,0,0,1,9.69-9.69,27.78,27.78,0,0,1,13.74-3.41,28.08,28.08,0,0,1,13.79,3.41,24.42,24.42,0,0,1,9.69,9.69,29.58,29.58,0,0,1,3.51,14.68,29.22,29.22,0,0,1-3.56,14.63,24.57,24.57,0,0,1-9.78,9.74,28.31,28.31,0,0,1-13.85,3.41A27.43,27.43,0,0,1,7117.87,5438.08Zm23.58-5a18.45,18.45,0,0,0,7.37-7.32,23.79,23.79,0,0,0,2.81-12,24.11,24.11,0,0,0-2.76-12,18.28,18.28,0,0,0-7.32-7.32,21.4,21.4,0,0,0-19.77,0,17.86,17.86,0,0,0-7.27,7.32,27.87,27.87,0,0,0,0,24,17.87,17.87,0,0,0,7.22,7.32,20.3,20.3,0,0,0,9.83,2.42A20.65,20.65,0,0,0,7141.45,5433Z" transform="translate(0 -128.1)"/><path class="cls-7" d="M7171.61,5399a24,24,0,0,1,9.24-9.69,26,26,0,0,1,13.3-3.41,24.36,24.36,0,0,1,12.85,3.46,21.18,21.18,0,0,1,8.41,9v-30.85h6.92v73.16h-6.92v-12.06a20.81,20.81,0,0,1-8.11,9.24,24,24,0,0,1-13.25,3.61,25.71,25.71,0,0,1-13.3-3.46,23.88,23.88,0,0,1-9.19-9.79,31,31,0,0,1-3.32-14.63A30.3,30.3,0,0,1,7171.61,5399Zm41.13,3.21a19.12,19.12,0,0,0-7.27-7.61,19.83,19.83,0,0,0-10.14-2.67,20.56,20.56,0,0,0-10.28,2.57,18.24,18.24,0,0,0-7.17,7.46,24.4,24.4,0,0,0-2.62,11.62,24.74,24.74,0,0,0,2.62,11.62,18.39,18.39,0,0,0,7.17,7.61,20.18,20.18,0,0,0,10.28,2.62,19.83,19.83,0,0,0,10.14-2.67,19.06,19.06,0,0,0,7.27-7.61,26,26,0,0,0,0-22.94Z" transform="translate(0 -128.1)"/><path class="cls-7" d="M7248.08,5438.08a24.62,24.62,0,0,1-9.59-9.69,29.58,29.58,0,0,1-3.51-14.68,29.28,29.28,0,0,1,3.56-14.68,24.8,24.8,0,0,1,9.69-9.69,29.49,29.49,0,0,1,27.53,0,24.42,24.42,0,0,1,9.69,9.69,29.58,29.58,0,0,1,3.51,14.68,29.22,29.22,0,0,1-3.56,14.63,24.57,24.57,0,0,1-9.78,9.74,28.31,28.31,0,0,1-13.85,3.41A27.43,27.43,0,0,1,7248.08,5438.08Zm23.58-5a18.45,18.45,0,0,0,7.37-7.32,23.69,23.69,0,0,0,2.81-12,24.11,24.11,0,0,0-2.76-12,18.28,18.28,0,0,0-7.32-7.32,21.4,21.4,0,0,0-19.77,0,17.86,17.86,0,0,0-7.27,7.32,27.87,27.87,0,0,0,0,24,17.87,17.87,0,0,0,7.22,7.32,20.3,20.3,0,0,0,9.83,2.42A20.65,20.65,0,0,0,7271.66,5433Z" transform="translate(0 -128.1)"/><path class="cls-7" d="M7338.64,5438.08a24.62,24.62,0,0,1-9.59-9.69,29.58,29.58,0,0,1-3.5-14.68,29.28,29.28,0,0,1,3.55-14.68,24.93,24.93,0,0,1,9.69-9.69,29.51,29.51,0,0,1,27.54,0A24.42,24.42,0,0,1,7376,5399a32.14,32.14,0,0,1-.05,29.31,24.59,24.59,0,0,1-9.79,9.74,28.27,28.27,0,0,1-13.84,3.41A27.47,27.47,0,0,1,7338.64,5438.08Zm23.59-5a18.43,18.43,0,0,0,7.36-7.32,23.69,23.69,0,0,0,2.82-12,24,24,0,0,0-2.77-12,18.16,18.16,0,0,0-7.32-7.32,21.4,21.4,0,0,0-19.77,0,18,18,0,0,0-7.27,7.32,27.87,27.87,0,0,0,0,24,17.93,17.93,0,0,0,7.22,7.32,20.37,20.37,0,0,0,9.84,2.42A20.68,20.68,0,0,0,7362.23,5433Z" transform="translate(0 -128.1)"/><path class="cls-7" d="M7479.58,5440.7h-16.9l-28.28-42.81v42.81h-16.91v-69.4h16.91l28.28,43v-43h16.9Z" transform="translate(0 -128.1)"/><path class="cls-7" d="M7491.69,5398.09a24.09,24.09,0,0,1,8.75-9.89,22.92,22.92,0,0,1,12.36-3.46,21.3,21.3,0,0,1,10.24,2.37,17.55,17.55,0,0,1,6.77,6.23v-7.81h16.91v55.17h-16.91v-7.81a18.28,18.28,0,0,1-6.87,6.23,21.3,21.3,0,0,1-10.24,2.37,22.43,22.43,0,0,1-12.26-3.51,24.28,24.28,0,0,1-8.75-10,33.32,33.32,0,0,1-3.21-15A33,33,0,0,1,7491.69,5398.09Zm34.61,5a11.4,11.4,0,0,0-8.55-3.66,11.52,11.52,0,0,0-8.56,3.61q-3.51,3.61-3.51,9.94t3.51,10a11.77,11.77,0,0,0,17.11.05q3.51-3.65,3.51-10T7526.3,5403.13Z" transform="translate(0 -128.1)"/><path class="cls-7" d="M7558.83,5398.09a24,24,0,0,1,8.75-9.89,22.89,22.89,0,0,1,12.35-3.46,21.66,21.66,0,0,1,9.94,2.28,18,18,0,0,1,7.07,6.13v-25.61h16.91v73.16h-16.91v-7.91a17.19,17.19,0,0,1-6.77,6.33,21.3,21.3,0,0,1-10.24,2.37,22.59,22.59,0,0,1-12.35-3.51,24.14,24.14,0,0,1-8.75-10,33.19,33.19,0,0,1-3.22-15A32.86,32.86,0,0,1,7558.83,5398.09Zm34.6,5a11.87,11.87,0,0,0-17.1-.05q-3.51,3.61-3.51,9.94t3.51,10a11.76,11.76,0,0,0,17.1.05q3.51-3.65,3.51-10T7593.43,5403.13Z" transform="translate(0 -128.1)"/><path class="cls-7" d="M7626,5398.09a24,24,0,0,1,8.75-9.89,22.9,22.9,0,0,1,12.36-3.46,21.26,21.26,0,0,1,10.23,2.37,17.55,17.55,0,0,1,6.77,6.23v-7.81H7681v55.17h-16.91v-7.81a18.28,18.28,0,0,1-6.87,6.23,21.23,21.23,0,0,1-10.23,2.37,22.41,22.41,0,0,1-12.26-3.51,24.14,24.14,0,0,1-8.75-10,33.19,33.19,0,0,1-3.22-15A32.86,32.86,0,0,1,7626,5398.09Zm34.6,5a11.87,11.87,0,0,0-17.1-.05q-3.51,3.61-3.51,9.94t3.51,10a11.76,11.76,0,0,0,17.1.05q3.51-3.65,3.51-10T7660.56,5403.13Z" transform="translate(0 -128.1)"/><path class="cls-7" d="M5191.28,5107l-40.85,78.1v47.32h-16.38v-47.32l-41-78.1h18.18l30.95,63.52,31-63.52Z" transform="translate(0 -128.1)"/><path class="cls-7" d="M5196.51,5156.16a44.44,44.44,0,0,1,16.83-17.72,46.1,46.1,0,0,1,23.84-6.3q13,0,22.5,5.58a37.22,37.22,0,0,1,14.21,14v-18h16.56v98.61h-16.56V5214a38.61,38.61,0,0,1-14.48,14.3A43.35,43.35,0,0,1,5237,5234a44.68,44.68,0,0,1-23.75-6.48,45.42,45.42,0,0,1-16.74-18.17,56.6,56.6,0,0,1-6.11-26.63Q5190.4,5167.59,5196.51,5156.16Zm72.88,7.29a31.86,31.86,0,0,0-12.14-12.68,34.44,34.44,0,0,0-33.56-.09,31.38,31.38,0,0,0-12.06,12.59,40.1,40.1,0,0,0-4.5,19.44,41,41,0,0,0,4.5,19.7,31.83,31.83,0,0,0,12.06,12.78,32.55,32.55,0,0,0,16.73,4.41,33.1,33.1,0,0,0,16.83-4.41,31.68,31.68,0,0,0,12.14-12.78,40.59,40.59,0,0,0,4.5-19.52A40.1,40.1,0,0,0,5269.39,5163.45Z" transform="translate(0 -128.1)"/><path class="cls-7" d="M5393.85,5142.85q11.16,10.89,11.16,31.4v58.12h-16.2v-55.78q0-14.76-7.38-22.58t-20.15-7.83q-13,0-20.61,8.1t-7.64,23.57v54.52h-16.38v-98.61H5333v14a32.49,32.49,0,0,1,13.22-11.7,41,41,0,0,1,18.45-4.14Q5382.69,5132,5393.85,5142.85Z" transform="translate(0 -128.1)"/><path class="cls-7" d="M5521.25,5189.18h-78.81q.89,14.58,10,22.77a31.77,31.77,0,0,0,22.05,8.19q10.6,0,17.72-5a26.2,26.2,0,0,0,10-13.23h17.63a42.33,42.33,0,0,1-15.83,23.12q-11.88,8.91-29.51,8.91a49.86,49.86,0,0,1-25.11-6.3,44.55,44.55,0,0,1-17.36-17.9q-6.3-11.61-6.3-26.9t6.12-26.82a43,43,0,0,1,17.18-17.72q11.07-6.21,25.47-6.21a49.49,49.49,0,0,1,24.83,6.12,42.39,42.39,0,0,1,16.64,16.82,49.67,49.67,0,0,1,5.85,24.21A96.06,96.06,0,0,1,5521.25,5189.18Zm-20.51-29.42a26.9,26.9,0,0,0-11.25-10.25,35.08,35.08,0,0,0-15.74-3.51,30.36,30.36,0,0,0-21.15,7.92q-8.73,7.9-10,21.95h62.27A30.21,30.21,0,0,0,5500.74,5159.76Z" transform="translate(0 -128.1)"/><path class="cls-7" d="M5559.76,5099.21v133.16h-16.38V5099.21Z" transform="translate(0 -128.1)"/><path class="cls-7" d="M5722.39,5169.66q-10.71,10.35-32.66,10.35h-24.12v52.36h-16.37V5107h40.49q21.23,0,32.3,10.26t11.06,26.45Q5733.09,5159.31,5722.39,5169.66Zm-12.51-9.09q6.48-5.94,6.48-16.91,0-23.22-26.63-23.22h-24.12v46.07h24.12Q5703.4,5166.51,5709.88,5160.57Z" transform="translate(0 -128.1)"/><path class="cls-7" d="M5754,5114.51a11.16,11.16,0,0,1,7.91-19.08,10.27,10.27,0,0,1,7.65,3.24,11.53,11.53,0,0,1,0,15.84,10.26,10.26,0,0,1-7.65,3.23A10.73,10.73,0,0,1,5754,5114.51Zm15.83,19.25v98.61h-16.37v-98.61Z" transform="translate(0 -128.1)"/><path class="cls-7" d="M5874.89,5142.85q11.14,10.89,11.15,31.4v58.12h-16.19v-55.78q0-14.76-7.38-22.58t-20.15-7.83q-13,0-20.61,8.1t-7.64,23.57v54.52h-16.38v-98.61h16.38v14a32.43,32.43,0,0,1,13.22-11.7,41,41,0,0,1,18.45-4.14Q5863.73,5132,5874.89,5142.85Z" transform="translate(0 -128.1)"/><path class="cls-7" d="M5932.83,5147.26v58.12q0,7.2,3.06,10.17t10.62,3h12.05v13.85h-14.75q-13.68,0-20.52-6.3t-6.84-20.69v-58.12h-12.77v-13.5h12.77v-24.83h16.38v24.83h25.73v13.5Z" transform="translate(0 -128.1)"/><path class="cls-7" d="M5994.76,5227.69a44.76,44.76,0,0,1-17.64-17.9q-6.39-11.61-6.39-26.9,0-15.12,6.57-26.73a45.31,45.31,0,0,1,17.91-17.81,54.93,54.93,0,0,1,50.74,0,45.47,45.47,0,0,1,17.91,17.72q6.55,11.52,6.57,26.82t-6.75,26.9a46.69,46.69,0,0,1-18.27,17.9,52.35,52.35,0,0,1-25.55,6.3A50.44,50.44,0,0,1,5994.76,5227.69Zm41.65-12.23a31.5,31.5,0,0,0,12.51-12.42q4.77-8.28,4.77-20.15t-4.68-20.16a30.62,30.62,0,0,0-12.24-12.32,35.29,35.29,0,0,0-32.83,0,29.61,29.61,0,0,0-12,12.32q-4.5,8.28-4.5,20.16,0,12,4.41,20.33a29.29,29.29,0,0,0,11.78,12.33,33.12,33.12,0,0,0,16.2,4.05A34.52,34.52,0,0,0,6036.41,5215.46Z" transform="translate(0 -128.1)"/><path class="cls-7" d="M5037.25,5178.51a75,75,0,0,1-74,74.73l-23.22.27a90.09,90.09,0,0,1-12.67-.91c-1.79-.24-3.59-.55-5.37-.91a92.09,92.09,0,0,1-27.64-10.42,92.18,92.18,0,0,1-19.12-14.6l-122.9-122.88H4794a41.51,41.51,0,0,1,29.4,12.18l81.31,81.31a50.43,50.43,0,0,0,35.39,14.64h.66l22.11-.26a33.16,33.16,0,0,0,31.79-41.48,34,34,0,0,0-1-3.24,33.15,33.15,0,0,0-31.06-21.57h-30.68v29.09a50.28,50.28,0,0,1-27.18-13.95l-14.41-14.4v-42.32h72.27A74.81,74.81,0,0,1,5037.25,5178.51Z" transform="translate(0 -128.1)"/><path class="cls-7" d="M4876.73,5266.18a111.92,111.92,0,0,0,26.49,11l-66.87,68.7h-58.12l85.84-88.14A109,109,0,0,0,4876.73,5266.18Z" transform="translate(0 -128.1)"/><path class="cls-7" d="M5163.37,5276.75v5.74h-19.18v63.37h-6.92v-63.37H5118v-5.74Z" transform="translate(0 -128.1)"/><path class="cls-7" d="M5184.28,5343.24a24.66,24.66,0,0,1-9.59-9.68,29.62,29.62,0,0,1-3.51-14.69,29.31,29.31,0,0,1,3.56-14.68,24.93,24.93,0,0,1,9.69-9.69,27.83,27.83,0,0,1,13.74-3.41,28.12,28.12,0,0,1,13.8,3.41,24.58,24.58,0,0,1,9.68,9.69,32.21,32.21,0,0,1,0,29.32,24.63,24.63,0,0,1-9.79,9.73,28.31,28.31,0,0,1-13.84,3.42A27.47,27.47,0,0,1,5184.28,5343.24Zm23.58-5a18.49,18.49,0,0,0,7.37-7.31,23.75,23.75,0,0,0,2.82-12,24.13,24.13,0,0,0-2.77-12,18.28,18.28,0,0,0-7.32-7.32,21.4,21.4,0,0,0-19.77,0,17.86,17.86,0,0,0-7.27,7.32,27.9,27.9,0,0,0,0,24,17.91,17.91,0,0,0,7.22,7.31,20.37,20.37,0,0,0,9.84,2.42A20.64,20.64,0,0,0,5207.86,5338.2Z" transform="translate(0 -128.1)"/><path class="cls-7" d="M5238,5304.19a24.12,24.12,0,0,1,9.24-9.69,26.07,26.07,0,0,1,13.3-3.41,24.33,24.33,0,0,1,12.85,3.46,21.17,21.17,0,0,1,8.41,9V5272.7h6.92v73.16h-6.92V5333.8a20.82,20.82,0,0,1-8.11,9.25,24.08,24.08,0,0,1-13.25,3.61,25.81,25.81,0,0,1-13.3-3.46,24,24,0,0,1-9.19-9.79,31.1,31.1,0,0,1-3.31-14.64A30.46,30.46,0,0,1,5238,5304.19Zm41.13,3.21a19.05,19.05,0,0,0-7.27-7.61,19.79,19.79,0,0,0-10.13-2.67,20.6,20.6,0,0,0-10.29,2.57,18.18,18.18,0,0,0-7.16,7.47,24.21,24.21,0,0,0-2.62,11.61,24.62,24.62,0,0,0,2.62,11.62,18.31,18.31,0,0,0,7.16,7.61,20.22,20.22,0,0,0,10.29,2.62,19.88,19.88,0,0,0,10.13-2.66,19,19,0,0,0,7.27-7.62,26,26,0,0,0,0-22.94Z" transform="translate(0 -128.1)"/><path class="cls-7" d="M5314.49,5343.24a24.66,24.66,0,0,1-9.59-9.68,29.62,29.62,0,0,1-3.51-14.69,29.31,29.31,0,0,1,3.56-14.68,24.93,24.93,0,0,1,9.69-9.69,27.83,27.83,0,0,1,13.74-3.41,28.12,28.12,0,0,1,13.8,3.41,24.54,24.54,0,0,1,9.69,9.69,29.71,29.71,0,0,1,3.51,14.68,29.39,29.39,0,0,1-3.56,14.64,24.63,24.63,0,0,1-9.79,9.73,28.28,28.28,0,0,1-13.84,3.42A27.47,27.47,0,0,1,5314.49,5343.24Zm23.58-5a18.49,18.49,0,0,0,7.37-7.31,23.75,23.75,0,0,0,2.82-12,24.13,24.13,0,0,0-2.77-12,18.28,18.28,0,0,0-7.32-7.32,21.4,21.4,0,0,0-19.77,0,17.92,17.92,0,0,0-7.27,7.32,27.9,27.9,0,0,0,0,24,17.91,17.91,0,0,0,7.22,7.31,20.37,20.37,0,0,0,9.84,2.42A20.61,20.61,0,0,0,5338.07,5338.2Z" transform="translate(0 -128.1)"/><path class="cls-7" d="M5405.06,5343.24a24.6,24.6,0,0,1-9.59-9.68,29.62,29.62,0,0,1-3.51-14.69,29.2,29.2,0,0,1,3.56-14.68,24.93,24.93,0,0,1,9.69-9.69,27.78,27.78,0,0,1,13.74-3.41,28.11,28.11,0,0,1,13.79,3.41,24.54,24.54,0,0,1,9.69,9.69,32.17,32.17,0,0,1-.05,29.32,24.51,24.51,0,0,1-9.79,9.73,28.25,28.25,0,0,1-13.84,3.42A27.41,27.41,0,0,1,5405.06,5343.24Zm23.58-5a18.4,18.4,0,0,0,7.36-7.31,23.75,23.75,0,0,0,2.82-12,24,24,0,0,0-2.77-12,18.19,18.19,0,0,0-7.31-7.32,21.42,21.42,0,0,0-19.78,0,17.9,17.9,0,0,0-7.26,7.32,27.9,27.9,0,0,0,0,24,17.88,17.88,0,0,0,7.21,7.31,20.37,20.37,0,0,0,9.84,2.42A20.65,20.65,0,0,0,5428.64,5338.2Z" transform="translate(0 -128.1)"/><path class="cls-7" d="M5546,5345.86h-16.91l-28.28-42.81v42.81H5483.9v-69.4h16.91l28.28,43v-43H5546Z" transform="translate(0 -128.1)"/><path class="cls-7" d="M5558.11,5303.25a24,24,0,0,1,8.75-9.89,22.9,22.9,0,0,1,12.36-3.46,21.26,21.26,0,0,1,10.23,2.38,17.47,17.47,0,0,1,6.77,6.23v-7.81h16.91v55.16h-16.91v-7.81a18.28,18.28,0,0,1-6.87,6.23,21.23,21.23,0,0,1-10.23,2.38,22.41,22.41,0,0,1-12.26-3.51,24.17,24.17,0,0,1-8.75-10,36.34,36.34,0,0,1,0-29.91Zm34.6,5a11.9,11.9,0,0,0-17.1-.05q-3.51,3.61-3.51,9.94t3.51,10a11.78,11.78,0,0,0,17.1.05q3.51-3.66,3.51-10T5592.71,5308.29Z" transform="translate(0 -128.1)"/><path class="cls-7" d="M5625.24,5303.25a24,24,0,0,1,8.75-9.89,22.9,22.9,0,0,1,12.36-3.46,21.65,21.65,0,0,1,9.93,2.28,18.11,18.11,0,0,1,7.07,6.13V5272.7h16.91v73.16h-16.91V5338a17.24,17.24,0,0,1-6.77,6.32,21.26,21.26,0,0,1-10.23,2.38,22.6,22.6,0,0,1-12.36-3.51,24.24,24.24,0,0,1-8.75-10,36.34,36.34,0,0,1,0-29.91Zm34.6,5a11.9,11.9,0,0,0-17.1-.05q-3.51,3.61-3.51,9.94t3.51,10a11.78,11.78,0,0,0,17.1.05q3.51-3.66,3.51-10T5659.84,5308.29Z" transform="translate(0 -128.1)"/><path class="cls-7" d="M5692.37,5303.25a24,24,0,0,1,8.75-9.89,22.9,22.9,0,0,1,12.36-3.46,21.23,21.23,0,0,1,10.23,2.38,17.47,17.47,0,0,1,6.77,6.23v-7.81h16.91v55.16h-16.91v-7.81a18.14,18.14,0,0,1-6.87,6.23,21.23,21.23,0,0,1-10.23,2.38,22.43,22.43,0,0,1-12.26-3.51,24.24,24.24,0,0,1-8.75-10,36.44,36.44,0,0,1,0-29.91Zm34.6,5a11.9,11.9,0,0,0-17.1-.05q-3.51,3.61-3.51,9.94t3.51,10a11.78,11.78,0,0,0,17.1.05q3.51-3.66,3.51-10T5727,5308.29Z" transform="translate(0 -128.1)"/><path class="cls-13" d="M5738.58,251.44c0,67.34-54.78,122.68-122.12,123.34l-38.32.44a148.5,148.5,0,0,1-20.9-1.5q-4.44-.6-8.87-1.5A152.44,152.44,0,0,1,5502.75,355a148.5,148.5,0,0,1-14.18-9.23,146.83,146.83,0,0,1-17.37-14.87L5268.35,128.1H5337a68.57,68.57,0,0,1,48.53,20.11l134.2,134.21a83.24,83.24,0,0,0,58.41,24.17h1.1l36.48-.44a54.74,54.74,0,0,0,52.47-68.47,52.69,52.69,0,0,0-1.7-5.34,54.69,54.69,0,0,0-51.25-35.6h-50.65v48a83.09,83.09,0,0,1-44.86-23L5496,198V128.1h119.28A123.49,123.49,0,0,1,5738.58,251.44Z" transform="translate(0 -128.1)"/><path class="cls-13" d="M5473.63,396.14a184.52,184.52,0,0,0,43.73,18.11L5407,527.65h-95.92l141.66-145.47A182.71,182.71,0,0,0,5473.63,396.14Z" transform="translate(0 -128.1)"/><path class="cls-13" d="M10785.68,2069.51l-40.85,78.09v47.33h-16.38V2147.6l-41-78.09h18.18l30.95,63.52,31-63.52Z" transform="translate(0 -128.1)"/><path class="cls-13" d="M10790.91,2118.72a44.44,44.44,0,0,1,16.83-17.72,46.1,46.1,0,0,1,23.84-6.3q13,0,22.5,5.58a37.2,37.2,0,0,1,14.21,14v-18h16.56v98.61h-16.56v-18.36a38.63,38.63,0,0,1-14.48,14.31,43.35,43.35,0,0,1-22.41,5.67,44.68,44.68,0,0,1-23.75-6.48,45.42,45.42,0,0,1-16.74-18.17,56.61,56.61,0,0,1-6.11-26.64Q10784.8,2130.15,10790.91,2118.72Zm72.88,7.29a31.82,31.82,0,0,0-12.14-12.69,34.44,34.44,0,0,0-33.56-.09,31.34,31.34,0,0,0-12.06,12.6,40.09,40.09,0,0,0-4.5,19.43,41,41,0,0,0,4.5,19.71,31.74,31.74,0,0,0,12.06,12.77,32.46,32.46,0,0,0,16.73,4.41,33,33,0,0,0,16.83-4.41,31.59,31.59,0,0,0,12.14-12.77,40.63,40.63,0,0,0,4.5-19.53A40.09,40.09,0,0,0,10863.79,2126Z" transform="translate(0 -128.1)"/><path class="cls-13" d="M10988.25,2105.41q11.16,10.89,11.16,31.4v58.12h-16.2v-55.78q0-14.76-7.38-22.59t-20.15-7.83q-13,0-20.6,8.1t-7.65,23.58v54.52h-16.38v-98.61h16.38v14a32.61,32.61,0,0,1,13.22-11.69,41,41,0,0,1,18.45-4.14Q10977.09,2094.52,10988.25,2105.41Z" transform="translate(0 -128.1)"/><path class="cls-13" d="M11115.65,2151.74h-78.81q.89,14.58,10,22.77a31.76,31.76,0,0,0,22.05,8.18q10.6,0,17.72-5a26.14,26.14,0,0,0,10-13.22h17.63a42.36,42.36,0,0,1-15.83,23.12q-11.88,8.91-29.51,8.91a49.86,49.86,0,0,1-25.11-6.3,44.67,44.67,0,0,1-17.36-17.9q-6.3-11.61-6.3-26.91t6.12-26.81a43,43,0,0,1,17.18-17.72q11.07-6.21,25.47-6.21a49.49,49.49,0,0,1,24.83,6.12,42.39,42.39,0,0,1,16.64,16.82,49.67,49.67,0,0,1,5.85,24.21A96.21,96.21,0,0,1,11115.65,2151.74Zm-20.51-29.42a26.92,26.92,0,0,0-11.25-10.26,35.08,35.08,0,0,0-15.74-3.51,30.36,30.36,0,0,0-21.15,7.92q-8.73,7.92-10,22h62.26A30.21,30.21,0,0,0,11095.14,2122.32Z" transform="translate(0 -128.1)"/><path class="cls-13" d="M11154.16,2061.77v133.16h-16.38V2061.77Z" transform="translate(0 -128.1)"/><path class="cls-13" d="M11316.79,2132.22q-10.71,10.35-32.66,10.35H11260v52.36h-16.37V2069.51h40.49q21.23,0,32.3,10.25t11.06,26.46Q11327.49,2121.87,11316.79,2132.22Zm-12.51-9.09q6.48-5.94,6.48-16.91,0-23.22-26.63-23.22H11260v46.07h24.12Q11297.8,2129.07,11304.28,2123.13Z" transform="translate(0 -128.1)"/><path class="cls-13" d="M11348.37,2077.06a11.16,11.16,0,0,1,7.91-19.07,10.27,10.27,0,0,1,7.65,3.24,11.52,11.52,0,0,1,0,15.83,10.27,10.27,0,0,1-7.65,3.24A10.73,10.73,0,0,1,11348.37,2077.06Zm15.83,19.26v98.61h-16.37v-98.61Z" transform="translate(0 -128.1)"/><path class="cls-13" d="M11469.29,2105.41q11.14,10.89,11.15,31.4v58.12h-16.19v-55.78q0-14.76-7.38-22.59t-20.15-7.83q-13,0-20.61,8.1t-7.64,23.58v54.52h-16.38v-98.61h16.38v14a32.48,32.48,0,0,1,13.22-11.69,41,41,0,0,1,18.45-4.14Q11458.13,2094.52,11469.29,2105.41Z" transform="translate(0 -128.1)"/><path class="cls-13" d="M11527.23,2109.81v58.13q0,7.2,3.06,10.16t10.62,3h12v13.86h-14.75q-13.68,0-20.52-6.3t-6.84-20.69v-58.13h-12.77v-13.49h12.77v-24.84h16.38v24.84H11553v13.49Z" transform="translate(0 -128.1)"/><path class="cls-13" d="M11589.16,2190.25a44.89,44.89,0,0,1-17.64-17.9q-6.39-11.61-6.39-26.91,0-15.11,6.57-26.72a45.25,45.25,0,0,1,17.91-17.81,54.93,54.93,0,0,1,50.74,0,45.47,45.47,0,0,1,17.91,17.72q6.55,11.52,6.57,26.81t-6.75,26.91a46.83,46.83,0,0,1-18.27,17.9,52.35,52.35,0,0,1-25.55,6.3A50.44,50.44,0,0,1,11589.16,2190.25Zm41.65-12.24a31.41,31.41,0,0,0,12.51-12.41q4.77-8.28,4.77-20.16t-4.68-20.15a30.65,30.65,0,0,0-12.24-12.33,35.29,35.29,0,0,0-32.83,0,29.63,29.63,0,0,0-12,12.33q-4.5,8.28-4.5,20.15,0,12.06,4.41,20.34a29.26,29.26,0,0,0,11.78,12.32,33.12,33.12,0,0,0,16.2,4.05A34.52,34.52,0,0,0,11630.81,2178Z" transform="translate(0 -128.1)"/><path class="cls-13" d="M10631.65,2141.07a75,75,0,0,1-74,74.73l-23.22.26a90.08,90.08,0,0,1-12.67-.9c-1.79-.25-3.59-.55-5.37-.91a92.36,92.36,0,0,1-27.64-10.42,91,91,0,0,1-8.59-5.59,89.7,89.7,0,0,1-10.53-9l-122.9-122.89h41.6a41.55,41.55,0,0,1,29.4,12.18l81.31,81.32a50.43,50.43,0,0,0,35.39,14.64h.66l22.11-.26a33.17,33.17,0,0,0,31.79-41.49c-.29-1.1-.64-2.19-1-3.24a33.16,33.16,0,0,0-31.06-21.56h-30.68V2137a50.35,50.35,0,0,1-27.18-13.95l-14.41-14.4v-42.33h72.27A74.82,74.82,0,0,1,10631.65,2141.07Z" transform="translate(0 -128.1)"/><path class="cls-13" d="M10471.13,2228.74a111.47,111.47,0,0,0,26.49,11l-66.87,68.71h-58.12l85.84-88.14A109,109,0,0,0,10471.13,2228.74Z" transform="translate(0 -128.1)"/><path class="cls-13" d="M10757.77,2239.31v5.74h-19.18v63.37h-6.92v-63.37h-19.28v-5.74Z" transform="translate(0 -128.1)"/><path class="cls-13" d="M10778.68,2305.8a24.62,24.62,0,0,1-9.59-9.69,29.58,29.58,0,0,1-3.51-14.68,29.28,29.28,0,0,1,3.56-14.68,24.8,24.8,0,0,1,9.69-9.69,27.73,27.73,0,0,1,13.74-3.41,28,28,0,0,1,13.8,3.41,24.45,24.45,0,0,1,9.68,9.69,32.19,32.19,0,0,1,0,29.31,24.66,24.66,0,0,1-9.79,9.74,28.3,28.3,0,0,1-13.84,3.41A27.47,27.47,0,0,1,10778.68,2305.8Zm23.58-5a18.45,18.45,0,0,0,7.37-7.32,23.69,23.69,0,0,0,2.82-12,24.11,24.11,0,0,0-2.77-12,18.22,18.22,0,0,0-7.32-7.32,21.4,21.4,0,0,0-19.77,0,17.8,17.8,0,0,0-7.27,7.32,27.87,27.87,0,0,0,0,24,17.87,17.87,0,0,0,7.22,7.32,20.37,20.37,0,0,0,9.84,2.42A20.64,20.64,0,0,0,10802.26,2300.76Z" transform="translate(0 -128.1)"/><path class="cls-13" d="M10832.42,2266.75a24,24,0,0,1,9.24-9.69,26,26,0,0,1,13.3-3.41,24.33,24.33,0,0,1,12.85,3.46,21.12,21.12,0,0,1,8.41,9v-30.85h6.92v73.16h-6.92v-12.06a20.75,20.75,0,0,1-8.11,9.24,24,24,0,0,1-13.25,3.61,25.71,25.71,0,0,1-13.3-3.46,24,24,0,0,1-9.19-9.79,31,31,0,0,1-3.31-14.63A30.41,30.41,0,0,1,10832.42,2266.75Zm41.13,3.21a19.05,19.05,0,0,0-7.27-7.61,19.79,19.79,0,0,0-10.13-2.67,20.6,20.6,0,0,0-10.29,2.57,18.16,18.16,0,0,0-7.16,7.46,24.28,24.28,0,0,0-2.62,11.62,24.62,24.62,0,0,0,2.62,11.62,18.31,18.31,0,0,0,7.16,7.61,20.22,20.22,0,0,0,10.29,2.62,19.79,19.79,0,0,0,10.13-2.67,19,19,0,0,0,7.27-7.61,26,26,0,0,0,0-22.94Z" transform="translate(0 -128.1)"/><path class="cls-13" d="M10908.89,2305.8a24.62,24.62,0,0,1-9.59-9.69,29.58,29.58,0,0,1-3.51-14.68,29.28,29.28,0,0,1,3.56-14.68,24.8,24.8,0,0,1,9.69-9.69,27.73,27.73,0,0,1,13.74-3.41,28,28,0,0,1,13.8,3.41,24.42,24.42,0,0,1,9.69,9.69,29.69,29.69,0,0,1,3.51,14.68,29.33,29.33,0,0,1-3.56,14.63,24.66,24.66,0,0,1-9.79,9.74,28.27,28.27,0,0,1-13.84,3.41A27.47,27.47,0,0,1,10908.89,2305.8Zm23.58-5a18.39,18.39,0,0,0,7.37-7.32,23.69,23.69,0,0,0,2.82-12,24.11,24.11,0,0,0-2.77-12,18.22,18.22,0,0,0-7.32-7.32,21.4,21.4,0,0,0-19.77,0,17.86,17.86,0,0,0-7.27,7.32,27.87,27.87,0,0,0,0,24,17.87,17.87,0,0,0,7.22,7.32,20.37,20.37,0,0,0,9.84,2.42A20.61,20.61,0,0,0,10932.47,2300.76Z" transform="translate(0 -128.1)"/><path class="cls-13" d="M10999.46,2305.8a24.56,24.56,0,0,1-9.59-9.69,29.58,29.58,0,0,1-3.51-14.68,29.18,29.18,0,0,1,3.56-14.68,24.8,24.8,0,0,1,9.69-9.69,27.67,27.67,0,0,1,13.74-3.41,28,28,0,0,1,13.79,3.41,24.42,24.42,0,0,1,9.69,9.69,32.14,32.14,0,0,1,0,29.31,24.53,24.53,0,0,1-9.79,9.74,28.25,28.25,0,0,1-13.84,3.41A27.4,27.4,0,0,1,10999.46,2305.8Zm23.58-5a18.37,18.37,0,0,0,7.36-7.32,23.69,23.69,0,0,0,2.82-12,24,24,0,0,0-2.77-12,18.13,18.13,0,0,0-7.31-7.32,21.42,21.42,0,0,0-19.78,0,17.84,17.84,0,0,0-7.26,7.32,27.87,27.87,0,0,0,0,24,17.85,17.85,0,0,0,7.21,7.32,20.37,20.37,0,0,0,9.84,2.42A20.65,20.65,0,0,0,11023,2300.76Z" transform="translate(0 -128.1)"/><path class="cls-13" d="M11140.4,2308.42h-16.91l-28.28-42.81v42.81h-16.91V2239h16.91l28.28,43v-43h16.91Z" transform="translate(0 -128.1)"/><path class="cls-13" d="M11152.51,2265.81a24,24,0,0,1,8.75-9.89,22.9,22.9,0,0,1,12.36-3.46,21.26,21.26,0,0,1,10.23,2.37,17.55,17.55,0,0,1,6.77,6.23v-7.81h16.91v55.17h-16.91v-7.81a18.28,18.28,0,0,1-6.87,6.23,21.23,21.23,0,0,1-10.23,2.37,22.41,22.41,0,0,1-12.26-3.51,24.21,24.21,0,0,1-8.75-10,33.19,33.19,0,0,1-3.22-15A32.86,32.86,0,0,1,11152.51,2265.81Zm34.6,5a11.87,11.87,0,0,0-17.1,0q-3.51,3.61-3.51,9.94t3.51,10a11.76,11.76,0,0,0,17.1.05q3.51-3.65,3.51-10T11187.11,2270.85Z" transform="translate(0 -128.1)"/><path class="cls-13" d="M11219.64,2265.81a24,24,0,0,1,8.75-9.89,22.9,22.9,0,0,1,12.36-3.46,21.65,21.65,0,0,1,9.93,2.28,18,18,0,0,1,7.07,6.13v-25.61h16.91v73.16h-16.91v-7.91a17.19,17.19,0,0,1-6.77,6.33,21.26,21.26,0,0,1-10.23,2.37,22.6,22.6,0,0,1-12.36-3.51,24.28,24.28,0,0,1-8.75-10,33.32,33.32,0,0,1-3.22-15A33,33,0,0,1,11219.64,2265.81Zm34.6,5a11.87,11.87,0,0,0-17.1,0q-3.51,3.61-3.51,9.94t3.51,10a11.76,11.76,0,0,0,17.1.05q3.51-3.65,3.51-10T11254.24,2270.85Z" transform="translate(0 -128.1)"/><path class="cls-13" d="M11286.77,2265.81a24,24,0,0,1,8.75-9.89,22.9,22.9,0,0,1,12.36-3.46,21.23,21.23,0,0,1,10.23,2.37,17.55,17.55,0,0,1,6.77,6.23v-7.81h16.91v55.17h-16.91v-7.81a18.14,18.14,0,0,1-6.87,6.23,21.23,21.23,0,0,1-10.23,2.37,22.43,22.43,0,0,1-12.26-3.51,24.28,24.28,0,0,1-8.75-10,33.32,33.32,0,0,1-3.21-15A33,33,0,0,1,11286.77,2265.81Zm34.6,5a11.87,11.87,0,0,0-17.1,0q-3.51,3.61-3.51,9.94t3.51,10a11.76,11.76,0,0,0,17.1.05q3.51-3.65,3.51-10T11321.37,2270.85Z" transform="translate(0 -128.1)"/></svg>